<svg width="160" height="160" viewBox="0 0 160 160" fill="none" xmlns="http://www.w3.org/2000/svg">
  <style>
    path { fill: #000; }
    @media (prefers-color-scheme: dark) { path { fill: #fff; }}
  </style>
  <path d="M15 10h130V0H15v10Zm0 120 65 30v-13l-55-25-10 8Zm130 0-65 30v-13l55-25 10 8Z" fill="#000"/>
  <path d="M15 130h10V0H15v130Zm120 0h10V0h-10v130Z" fill="#000"/>
  <path fill-rule="evenodd" clip-rule="evenodd" d="m135 122-55 25V10h55v112Zm-9-41-8-8 8-8-7-7-8 8-8-8-7 7 8 8-8 8 7 7 8-8 8 8 7-7Zm-8-48 8 8-7 7-8-8-8 8-7-7 8-8-8-8 7-7 8 8 8-8 7 7-8 8Zm8 88-8-8 8-8-7-7-8 8-8-8-7 7 8 8-8 8 7 7 8-8 8 8 7-7Z" fill="#000"/>
  <path d="M80 116 52.5 96.5c0-.7 10.3 4 10.3 4 .5.5 2-5.8 2.3-5.5.5.5 2.4 7 2.4 7s11.7 6.1 12.5 7V56.4L59.5 39 80 51v65ZM64.1 38c7.8-4.7 15-8.3 8.3-25-13.3 13.3-13.3 16.7-8.3 25Zm-5.9-3c-6.6-10.5-9.3-17-24-17 1.4 14.4 8.7 17 24 17Z" fill="#000"/>
  <path d="M59 44.5c-5.9-5.2-21.2-2.3-28.2-.2 5.3 4.8 18.3 11.6 28.1.2Zm6 46.3c9.7-11 10.5-18.9-6-34.4-5.2 22.5-6.4 29.7 6 34.4Zm-6.2 9.7c-.5-11.1-6.2-19.2-25.8-23 2.5 16.6 7.2 23.8 25.8 23Zm8.7 14.1c-8.7-10-28-7-36.4-4 7.5 5.6 25.4 14.3 36.4 4Z" fill="#000"/>
</svg>