<svg version="1.0" xmlns="http://www.w3.org/2000/svg" width="700" height="700" viewBox="0 0 700 700">
  <path d="M65.8.7c-.9 1.8-.1 567.4.8 568.2.5.5 8.1 4.1 16.9 8.1l27.4 12.6a246 246 0 0 0 11.6 5.4l10.7 4.9L168 616a4832.4 4832.4 0 0 1 45.4 21l10.2 4.6 26.4 12.2 40.5 18.7 40.5 18.7 12.8 5.9 6.3 2.9 4.7-2.1 12.2-5.6 12.5-5.9 16.9-7.8 12.1-5.6c.5 0 14.5-6.5 40.8-18.9l11.2-5.1 8.9-4 43.1-20 63.9-29.4 52.4-24.4 5.6-2.7v-284l.1-284L350.3.2C194 .1 66 .3 65.8.7zm284 342.6c.1 164.9.1 299.7-.1 299.7l-6.5-3c-3.4-1.7-6.4-3-6.6-3-.2 0-5.2-2.2-11-5l-11-5-9.7-4.4-19.4-8.9-18.8-8.6a153 153 0 0 0-9.2-4.1 3817.1 3817.1 0 0 0-64-29l-17.5-8-19.8-9.1c-4.6-2.2-8.6-3.9-8.8-3.9l-10.1-4.6a863 863 0 0 0-24.4-11.1l-3.5-1.8V289c0-197.9.2-244.6 1.2-245 .7-.3 54.8-.5 120.1-.4l118.8.1.3 299.6zM469 97.2c8.6 8.7 16.2 15.8 16.8 15.8.6 0 1.7-.8 2.4-1.8.8-.9 8.4-8.6 17-17.1l15.5-15.3L536 94l15.2 15.3-13.9 14c-7.6 7.7-15.3 15.3-17 16.9-1.8 1.7-3.3 3.5-3.3 4s7.7 8.6 17.1 18l17.1 17.1-15.3 15.3-15.4 15.4-17.5-17.5-17.5-17.5-17.5 17.5-17.5 17.5-15.2-15.2-15.3-15.3 17.5-17.5 17.5-17.5-17.5-17.5-17.5-17.5 15.2-15.2c12.7-12.8 15.4-15 16.7-14 .8.7 8.6 8.3 17.1 16.9zm.9 176 15.6 15.6 17.6-17.5 17.6-17.5 15.2 15.3 15.2 15.2-17 17.1a297.7 297.7 0 0 0-17.1 17.9c0 .5 7.7 8.5 17.1 17.9l17.1 17.1-15.3 15.3-15.4 15.4-17.5-17.5-17.5-17.5-17.5 17.5-17.5 17.5-15.3-15.2-15.2-15.3 17.5-17.5 17.5-17.5-17-17c-9.3-9.4-17-17.4-17-18 0-.5 6.6-7.6 14.7-15.7 14.2-14.3 14.8-14.7 16.7-13 1 .9 8.9 8.7 17.5 17.4zm-1 173.8 16.6 16.8 17.6-17.4 17.6-17.5 15.2 15.2 15.3 15.2-17.1 17.1a297.7 297.7 0 0 0-17.1 17.9c0 .5 7.7 8.5 17.1 17.9 9.4 9.3 16.9 17.2 16.7 17.3L535.6 545l-15 15.1-17.6-17.6-17.5-17.5-17.5 17.5-17.5 17.5-15.2-15.2-15.3-15.3 17.5-17.5 17.5-17.5-17.5-17.5-17.5-17.5 15.2-15.2c8.3-8.3 15.6-14.9 16.1-14.6.5.3 8.4 8.1 17.6 17.3z"/>
  <path d="M312.3 57.2c-34.4 35-44.8 54.6-39.6 74.5a111 111 0 0 0 10.8 23.6c1.6 2.3 1.8 2.2 17-7.8 23.1-15.2 31.9-29.3 31.8-51a74 74 0 0 0-2.4-20.2l-1.4-6.4c-.8-3.7-6.9-20.9-7.5-20.9-.3 0-4.3 3.7-8.7 8.2zm-167.7 15 1.5 9.5 1.1 8a123 123 0 0 0 9.4 23.5 64 64 0 0 0 21.3 19.8c12.5 6.3 26.3 9.3 48.1 10.6 17.1 1.1 22.5 1 22.3-.4-.3-1.4-15.1-24.7-21.1-33.2-19.5-27.4-38.4-37.7-72.8-39.6l-10.2-.6.4 2.4zM258 156.6l2.4 4.6 6.8 12.8 8 15 24.3 45.7 9.1 17.1-.2 51c-.2 67.9-1.5 166.2-2.3 171.6 0 .5-2.5-1.5-5.4-4.5l-18-17.3c-12.6-11.9-12.6-11.9-19.3-25.2a54.7 54.7 0 0 0-7.6-12.8 1 1 0 0 0-.4 1.3c.3.4.8 3.6 1.1 7.2l1 11.1c.3 2.9.2 4.8-.4 4.8-.6 0-4.7-1.9-9.1-4.2-8.6-4.6-8.5-4.4-9.5-13.7a41 41 0 0 0-.9-6 84.1 84.1 0 0 0-10.8-28.5c-8.8-14.9-27-29.6-47.3-38.1l-7-3a288.4 288.4 0 0 0-43.8-12.1c-2.1-.7-2.1-.9.8 14.6 6.3 33.4 16 54.3 31.2 67a90.9 90.9 0 0 0 21.2 12.4l3.1.8c2.9 1.1 9.6 2.6 14 3.3l6.4 1.1c1 .2 7 .6 13.4 1 7 .4 12.1 1.1 13.1 1.9l13.6 10.3c6.6 5 12.9 9.9 14 10.9l8.5 7.3c8.6 7.3 19.4 18.3 24.2 24.7 6.2 8.2 7.6 13 7.3 25.3l-1 41.5-.9 36.8c0 3.2.1 6.2.4 6.6.8 1.2 33.2 13.2 33.9 12.5.9-.9.7-426.4-.1-426.4-.5 0-.8.4-.8.9 0 .8-14.6 28.7-15.7 30.1-.3.3-2.7-2-5.5-5l-19.7-20.9L273 172c-8.7-9.3-15-15.8-15-15.4z"/>
  <path d="M177.5 162.5c-19.3 2.6-17.2 2.2-34 6-14.1 3.2-16.1 4-14.4 6.1 4.5 5.4 27.2 18.3 38.4 21.9 25.5 8 48.6 4.9 67.5-8.9 6.9-5 15.2-13.5 14.4-14.7-1.6-2.6-14.8-8.1-22.9-9.5l-6.9-1.4c-5.5-1.2-31.5-.9-42.1.5zm60.5 94.7-2.6 11.3a2282 2282 0 0 1-4.9 23.5l-1.5 7.7c-.5 2.2-1.3 6.5-1.6 9.5a141 141 0 0 0-2.8 30.8c0 26.1 8 39.9 29.9 51.3l8.9 4.2 3.9 1.5 3.1-3.6c11.9-14.2 23.3-33.2 25-41.9l1.2-5.5c.6-3.2.7-15.8 0-18.9-3-14-11.3-30.7-21.5-43.4a462.1 462.1 0 0 0-31.7-34l-3.1-2.8-2.3 10.3zm-56.2 214.3c-.2.2-4.3.6-9.2 1-5 .3-9.2.8-9.5 1-.4.1-2.8.6-5.6.9-13.2 1.8-38.8 8.3-37.9 9.7.7 1.2 14.2 10 20.9 13.7a232.6 232.6 0 0 0 45.9 19.3l7.8 2c15.5 3.9 35.9 4 49.8.3l6.7-1.8c3.5-.7 18.4-9.1 22.3-12.6l4.5-4-6.1-5.8a83.2 83.2 0 0 0-29.9-17.1 84 84 0 0 0-19.4-4.7l-6.6-1.1c-2.3-.5-33.2-1.2-33.7-.8z"/>
</svg>