<svg viewBox="0 0 130 205" fill="none" xmlns="http://www.w3.org/2000/svg">
  <path d="M0 40h130V25H0v15Z" fill="#005641"/>
  <path d="m65 187 50-22V60H65v127Z" fill="#000"/>
  <path d="M0 55h130V45H0v10Zm0 120 65 30v-13l-55-25-10 8Zm130 0-65 30v-13l55-25 10 8Z" fill="#8D0022"/>
  <path d="M0 175h10V45H0v130Zm120 0h10V45h-10v130Z" fill="#8D0022"/>
  <path fill-rule="evenodd" clip-rule="evenodd" d="m97 80 8 8-7 7-8-8-8 8-7-7 8-8-8-8 7-7 8 8 8-8 7 7-8 8Zm0 35 8 8-7 7-8-8-8 8-7-7 8-8-8-8 7-7 8 8 8-8 7 7-8 8Zm0 35 8 8-7 7-8-8-8 8-7-7 8-8-8-8 7-7 8 8 8-8 7 7-8 8Z" fill="#fff"/>
  <path d="M60 105v82c-5.6-5.6-5.3-6.4-5-23a930.4 930.4 0 0 0 0-9v-12c0-4-25-31.4-25-33 0-.5 2 1.3 5 4 .3.3-.3-3.2 0-3 .3.3 1.5 4.4 2.1 5 7.5 7 18.2 17.3 18.3 15 .4-9.7 1-17.2 1.6-23 0-2.5-25.6-37.8-25-39 .5-1 25 32 25.9 32 1.6-10.5 1.7-16.8 2.1-16 .5 1 0 15 0 20Z" fill="#005641"/>
  <path d="M55 94c1-.5 2.7-2.4 2-6-2 0-3 5-2 6Zm-4-9c-5-4-7.5-10-3-15.5C54 77 54 81 51 85ZM38 73c4.7-2.8 9-5 5-15-8 8-8 10-5 15Zm22 10c3-3 2-14-1-21.5C53.5 71 54 80 60 83ZM33 67c2-2 1.5-5-2-7 0 4 1.3 6.3 2 7Zm-1 5c-5-8-7-13-18-13 1 11 6.5 13 18 13Zm4 6c-2.4-3.6-11-4.2-15-4 2.2 3.3 8.2 8.8 15 4Zm-1 30c7.5-6 9-11 0-23-6 14-7.6 18.5 0 23Zm-7 0c0-6-3-10.5-14-13 1 9 3.5 13 14 13Zm-1-12c2-3-2.5-7-4.5-8 0 5 1.5 8 4.5 8Zm19 54c4.5 2 3.5 7 0 7s-5.5-7 0-7Zm0 9c0 10-4 12-12 12 0-5 2.6-12 12-12Zm-1-14c0-10-5-12.5-20-16 6.5 14.5 10 16 20 16Zm-10-22c-2.4-4-9.7-4.3-13-4 2.3 2.5 8.1 6.7 13 4Zm-18 17c4 4.5 3 8 0 8s-4-8 0-8Zm30.5-22c3 1 5.5-7 1.5-7s-4.5 6-1.5 7ZM37 153c-1-3-4-3-8.5 0 5.5 2.5 6.5 2 8.5 0Z" fill="#005641"/>
  <path fill-rule="evenodd" clip-rule="evenodd" d="M52.5 0h-5v5h5l-5 5v10h35v-5h-5l5-5V0h-30Zm0 15V0l5 5h11l-16 10Zm25-10-16 10h11l5 5V5Z" fill="#005641"/>
</svg>