<svg width="700" height="700" viewBox="0 0 700 700" fill="none" xmlns="http://www.w3.org/2000/svg">
<rect width="700" height="700" fill="white"/>
<path d="M349.4 174.7C252.3 174.7 173.7 253.3 173.7 350.3C173.7 447.3 252.3 526 349.4 526C446.4 526 525 447.3 525 350.3C525 253.3 446.3 174.7 349.4 174.7ZM349.4 521.7C254.7 521.7 178 445 178 350.3C178 255.7 254.7 178.9 349.4 178.9C444 178.9 520.8 255.6 520.8 350.3C520.7 445 443.9 521.7 349.4 521.7Z" fill="#701111"/>
<path d="M349.4 117.3C220.6 117.3 116.2 221.6 116.2 350.3C116.2 479 220.5 583.4 349.3 583.4C478 583.4 582.3 479 582.3 350.3C582.3 221.6 478.1 117.3 349.4 117.3ZM349.4 579.5C222.8 579.5 120.1 476.9 120.1 350.3C120.1 223.7 222.7 121.1 349.3 121.1C475.8 121.1 578.5 223.7 578.5 350.3C578.5 476.9 475.9 579.5 349.4 579.5Z" fill="#701111"/>
<path d="M358.1 108L349.6 102.7L341 108L349.6 113.2L358.1 108Z" fill="#701111"/>
<path d="M322 109.3L312.8 105.4L305 111.9L314.3 115.7L322 109.3Z" fill="#701111"/>
<path d="M286.5 116L276.8 113.6L270.1 121.1L279.8 123.5L286.5 116Z" fill="#701111"/>
<path d="M252.4 128L242.4 127L236.9 135.4L247 136.4L252.4 128Z" fill="#701111"/>
<path d="M220.4 144.8L210.4 145.3L206.3 154.6L216.4 154L220.4 144.8Z" fill="#701111"/>
<path d="M191.4 166.3L181.5 168.3L178.7 178L188.7 176L191.4 166.3Z" fill="#701111"/>
<path d="M165.8 191.8L156.4 195.3L155.1 205.3L164.6 201.8L165.8 191.8Z" fill="#701111"/>
<path d="M144.2 220.7L135.4 225.6L135.5 235.6L144.4 230.8L144.2 220.7Z" fill="#701111"/>
<path d="M127.3 252.8L119.3 258.9L121 268.8L129 262.7L127.3 252.8Z" fill="#701111"/>
<path d="M115.2 286.8L108.3 294L111.4 303.6L118.5 296.4L115.2 286.8Z" fill="#701111"/>
<path d="M108.3 322.8L102.5 331L107 339.9L112.9 331.8L108.3 322.8Z" fill="#701111"/>
<path d="M107 359.6L102.4 368.5L108.2 376.8L112.8 367.8L107 359.6Z" fill="#701111"/>
<path d="M111 395.5L107.8 405.1L114.8 412.3L118 402.7L111 395.5Z" fill="#701111"/>
<path d="M120.3 430.4L118.6 440.3L126.6 446.4L128.4 436.5L120.3 430.4Z" fill="#701111"/>
<path d="M134.8 463.5L134.6 473.6L143.4 478.4L143.6 468.4L134.8 463.5Z" fill="#701111"/>
<path d="M154 494.1L155.3 504.1L164.7 507.5L163.4 497.6L154 494.1Z" fill="#701111"/>
<path d="M177.6 521.5L180.3 531.2L190.2 533.2L187.4 523.6L177.6 521.5Z" fill="#701111"/>
<path d="M205 545.2L209.1 554.3L219.2 554.9L215 545.8L205 545.2Z" fill="#701111"/>
<path d="M235.4 564.6L240.9 573L251 572L245.5 563.6L235.4 564.6Z" fill="#701111"/>
<path d="M268.5 579.1L275.2 586.7L285 584.2L278.3 576.7L268.5 579.1Z" fill="#701111"/>
<path d="M303.5 588.7L311.3 595L320.5 591.2L312.8 584.8L303.5 588.7Z" fill="#701111"/>
<path d="M340 592.6L348.6 597.9L357.3 592.6L348.6 587.5L340 592.6Z" fill="#701111"/>
<path d="M376.6 591.4L385.9 595.2L393.5 588.8L384.3 584.9L376.6 591.4Z" fill="#701111"/>
<path d="M412 584.6L421.8 587.1L428.5 579.6L418.8 577.2L412 584.6Z" fill="#701111"/>
<path d="M446.2 572.7L456.2 573.7L461.8 565.3L451.7 564.3L446.2 572.7Z" fill="#701111"/>
<path d="M478.2 555.9L488.2 555.4L492.4 546.2L482.3 546.7L478.2 555.9Z" fill="#701111"/>
<path d="M507.3 534.4L517.1 532.4L519.9 522.7L510 524.7L507.3 534.4Z" fill="#701111"/>
<path d="M532.9 508.8L542.3 505.4L543.5 495.4L534.1 498.8L532.9 508.8Z" fill="#701111"/>
<path d="M554.5 479.9L563.3 475.1L563.1 465L554.3 469.8L554.5 479.9Z" fill="#701111"/>
<path d="M571.4 448L579.4 441.8L577.6 431.9L569.7 438L571.4 448Z" fill="#701111"/>
<path d="M583.4 413.8L590.4 406.6L587.2 397L580.1 404.2L583.4 413.8Z" fill="#701111"/>
<path d="M590.4 377.9L596.1 369.7L591.6 360.7L585.8 368.9L590.4 377.9Z" fill="#701111"/>
<path d="M591.7 341.1L596.2 332.1L590.5 323.9L585.9 332.9L591.7 341.1Z" fill="#701111"/>
<path d="M587.7 305.2L590.9 295.6L583.8 288.4L580.6 298L587.7 305.2Z" fill="#701111"/>
<path d="M578.3 270.3L580 260.4L572 254.2L570.3 264.2L578.3 270.3Z" fill="#701111"/>
<path d="M563.9 237.1L564.1 227.1L555.2 222.2L555.1 232.3L563.9 237.1Z" fill="#701111"/>
<path d="M544.7 206.6L543.4 196.5L533.9 193.1L535.2 203.1L544.7 206.6Z" fill="#701111"/>
<path d="M521.1 179.2L518.3 169.5L508.4 167.4L511.2 177.1L521.1 179.2Z" fill="#701111"/>
<path d="M493.6 155.5L489.5 146.3L479.4 145.8L483.6 155L493.6 155.5Z" fill="#701111"/>
<path d="M463.2 136.2L457.7 127.7L447.7 128.7L453.2 137.1L463.2 136.2Z" fill="#701111"/>
<path d="M430 121.5L423.4 114L413.6 116.5L420.3 124L430 121.5Z" fill="#701111"/>
<path d="M395.1 112L387.3 105.6L378.1 109.5L385.8 115.9L395.1 112Z" fill="#701111"/>
<path d="M376.1 109.3L367.9 103.4L358.9 108L367.2 113.9L376.1 109.3Z" fill="#701111"/>
<path d="M340 108L331.1 103.4L322.9 109.2L331.8 113.8L340 108Z" fill="#701111"/>
<path d="M304.2 112L294.6 108.8L287.4 115.9L296.9 119L304.2 112Z" fill="#701111"/>
<path d="M269.2 121.4L259.3 119.7L253.2 127.7L263.2 129.4L269.2 121.4Z" fill="#701111"/>
<path d="M236.1 135.8L226.1 135.6L221.2 144.4L231.3 144.6L236.1 135.8Z" fill="#701111"/>
<path d="M205.5 155.1L195.5 156.3L192.1 165.8L202.1 164.5L205.5 155.1Z" fill="#701111"/>
<path d="M178.2 178.6L168.4 181.4L166.4 191.2L176.1 188.5L178.2 178.6Z" fill="#701111"/>
<path d="M154.4 205.8L145.2 210L144.7 220L153.8 215.9L154.4 205.8Z" fill="#701111"/>
<path d="M135.1 236.5L126.7 242L127.7 252L136.1 246.5L135.1 236.5Z" fill="#701111"/>
<path d="M120.6 269.6L113.1 276.3L115.6 286L123.1 279.3L120.6 269.6Z" fill="#701111"/>
<path d="M111 304.9L104.6 312.7L108.5 322L114.9 314.2L111 304.9Z" fill="#701111"/>
<path d="M106.9 341.5L101.7 350.2L106.9 358.8L112.2 350.2L106.9 341.5Z" fill="#701111"/>
<path d="M108.3 377.7L104.4 386.9L110.9 394.6L114.7 385.4L108.3 377.7Z" fill="#701111"/>
<path d="M115 413.1L112.6 422.9L120.1 429.6L122.6 419.8L115 413.1Z" fill="#701111"/>
<path d="M126.9 447.3L126 457.3L134.4 462.8L135.4 452.8L126.9 447.3Z" fill="#701111"/>
<path d="M143.8 479.2L144.4 489.2L153.6 493.4L153 483.3L143.8 479.2Z" fill="#701111"/>
<path d="M165.3 508.3L167.3 518.1L177 521L175 511.1L165.3 508.3Z" fill="#701111"/>
<path d="M190.9 534L194.3 543.4L204.4 544.7L200.9 535.3L190.9 534Z" fill="#701111"/>
<path d="M219.8 555.5L224.7 564.3L234.7 564.1L229.9 555.3L219.8 555.5Z" fill="#701111"/>
<path d="M251.8 572.5L257.8 580.5L267.8 578.8L261.7 570.8L251.8 572.5Z" fill="#701111"/>
<path d="M285.9 584.6L293.1 591.6L302.7 588.4L295.5 581.4L285.9 584.6Z" fill="#701111"/>
<path d="M322 591.4L330.2 597.2L339.2 592.6L331 586.8L322 591.4Z" fill="#701111"/>
<path d="M358.6 592.6L367.5 597.3L375.7 591.5L366.8 586.9L358.6 592.6Z" fill="#701111"/>
<path d="M394.5 588.7L404 591.9L411.2 584.8L401.7 581.6L394.5 588.7Z" fill="#701111"/>
<path d="M429.4 579.3L439.3 581L445.4 573L435.5 571.3L429.4 579.3Z" fill="#701111"/>
<path d="M462.5 564.8L472.6 565L477.4 556.3L467.3 556L462.5 564.8Z" fill="#701111"/>
<path d="M493.1 545.7L503.1 544.4L506.6 534.9L496.5 536.2L493.1 545.7Z" fill="#701111"/>
<path d="M520.5 522.1L530.2 519.3L532.2 509.4L522.5 512.1L520.5 522.1Z" fill="#701111"/>
<path d="M544.3 494.8L553.5 490.6L554 480.6L544.8 484.8L544.3 494.8Z" fill="#701111"/>
<path d="M563.5 464.2L571.9 458.7L571 448.7L562.5 454.2L563.5 464.2Z" fill="#701111"/>
<path d="M578 431.1L585.6 424.3L583.1 414.6L575.5 421.3L578 431.1Z" fill="#701111"/>
<path d="M587.6 395.7L594 388L590.2 378.7L583.7 386.5L587.6 395.7Z" fill="#701111"/>
<path d="M591.7 359.1L596.9 350.5L591.7 341.9L586.5 350.5L591.7 359.1Z" fill="#701111"/>
<path d="M590.4 323L594.2 313.8L587.8 306L583.9 315.3L590.4 323Z" fill="#701111"/>
<path d="M583.6 287.5L586.1 277.7L578.6 271.1L576.1 280.8L583.6 287.5Z" fill="#701111"/>
<path d="M571.7 253.4L572.7 243.4L564.2 237.9L563.2 247.9L571.7 253.4Z" fill="#701111"/>
<path d="M554.8 221.5L554.3 211.4L545.1 207.2L545.6 217.3L554.8 221.5Z" fill="#701111"/>
<path d="M533.4 192.4L531.3 182.6L521.6 179.8L523.7 189.6L533.4 192.4Z" fill="#701111"/>
<path d="M507.8 166.8L504.3 157.3L494.2 156L497.8 165.5L507.8 166.8Z" fill="#701111"/>
<path d="M478.8 145.2L473.9 136.4L463.9 136.6L468.7 145.4L478.8 145.2Z" fill="#701111"/>
<path d="M446.9 128.2L440.8 120.2L430.8 121.9L436.9 129.9L446.9 128.2Z" fill="#701111"/>
<path d="M412.7 116.1L405.5 109.1L395.9 112.3L403.1 119.3L412.7 116.1Z" fill="#701111"/>
<path d="M91 350.3C91 492.7 206.9 608.7 349.4 608.7C491.8 608.7 607.7 492.8 607.7 350.3C607.7 207.8 491.8 92 349.4 92C206.9 92 91 207.9 91 350.3ZM97.8 350.3C97.8 211.6 210.7 98.7 349.4 98.7C488.1 98.7 601 211.6 601 350.3C601 489 488.1 601.9 349.4 601.9C210.6 602 97.8 489.1 97.8 350.3Z" fill="#701111"/>
<path d="M309.1 551.13L300.1 551.13C300.16 552.85 300.49 554.16 301.09 555.06C301.69 555.96 302.7 556.41 304.12 556.41C305.1 556.41 305.91 556.19 306.55 555.75C307.19 555.29 307.7 554.61 308.08 553.71L309.01 554.25C308.51 555.47 307.81 556.45 306.91 557.19C306.01 557.93 304.66 558.3 302.86 558.3C298.56 558.3 296.41 555.87 296.41 551.01C296.41 548.55 296.95 546.7 298.03 545.46C299.13 544.22 300.73 543.6 302.83 543.6C305.03 543.6 306.62 544.24 307.6 545.52C308.6 546.8 309.1 548.54 309.1 550.74L309.1 551.13ZM305.44 549.93C305.44 548.15 305.28 546.85 304.96 546.03C304.64 545.21 303.97 544.8 302.95 544.8C301.97 544.8 301.25 545.21 300.79 546.03C300.35 546.85 300.11 548.15 300.07 549.93L305.44 549.93ZM315.598 558.33C315.058 558.33 314.608 558.28 314.248 558.18C313.908 558.1 313.498 557.98 313.018 557.82C312.558 557.62 312.178 557.52 311.878 557.52C311.638 557.52 311.448 557.57 311.308 557.67C311.188 557.75 311.068 557.89 310.948 558.09L310.378 558.09L310.108 553.14L310.858 553.14C311.238 554.34 311.838 555.31 312.658 556.05C313.498 556.79 314.418 557.16 315.418 557.16C316.138 557.16 316.698 556.97 317.098 556.59C317.498 556.19 317.698 555.66 317.698 555C317.698 554.58 317.608 554.24 317.428 553.98C317.248 553.7 316.978 553.45 316.618 553.23C316.258 553.01 315.668 552.7 314.848 552.3L314.248 552C312.868 551.32 311.908 550.69 311.368 550.11C310.848 549.51 310.588 548.74 310.588 547.8C310.588 546.46 311.028 545.43 311.908 544.71C312.788 543.97 313.988 543.6 315.508 543.6C316.328 543.6 317.108 543.73 317.848 543.99C318.288 544.11 318.588 544.17 318.748 544.17C318.968 544.17 319.118 544.13 319.198 544.05C319.278 543.97 319.328 543.89 319.348 543.81C319.388 543.71 319.408 543.65 319.408 543.63L320.038 543.63L320.278 548.04L319.528 548.04C319.288 547.08 318.818 546.3 318.118 545.7C317.438 545.1 316.658 544.8 315.778 544.8C315.158 544.8 314.638 544.95 314.218 545.25C313.818 545.55 313.618 545.95 313.618 546.45C313.618 547.35 314.298 548.11 315.658 548.73L316.588 549.15C317.548 549.59 318.318 550 318.898 550.38C319.478 550.76 319.938 551.23 320.278 551.79C320.618 552.33 320.788 553 320.788 553.8C320.788 555.16 320.308 556.26 319.348 557.1C318.408 557.92 317.158 558.33 315.598 558.33ZM325.749 558.33C324.649 558.33 323.789 558.03 323.169 557.43C322.549 556.81 322.239 555.94 322.239 554.82L322.239 545.1L320.469 545.1L320.469 544.11C321.509 543.79 322.339 543.24 322.959 542.46C323.579 541.66 324.069 540.57 324.429 539.19L325.689 539.19L325.689 543.9L328.899 543.9L328.899 545.1L325.689 545.1L325.689 553.77C325.689 554.67 325.859 555.34 326.199 555.78C326.539 556.22 327.069 556.44 327.789 556.44C328.329 556.44 328.829 556.34 329.289 556.14L329.619 556.89C328.879 557.37 328.239 557.73 327.699 557.97C327.179 558.21 326.529 558.33 325.749 558.33ZM332.451 558.27C331.851 558.27 331.341 558.06 330.921 557.64C330.501 557.22 330.291 556.71 330.291 556.11C330.291 555.51 330.501 555 330.921 554.58C331.341 554.16 331.851 553.95 332.451 553.95C333.051 553.95 333.561 554.16 333.981 554.58C334.421 555 334.641 555.51 334.641 556.11C334.641 556.71 334.421 557.22 333.981 557.64C333.561 558.06 333.051 558.27 332.451 558.27ZM341.754 557.61C341.754 556.27 342.264 554.96 343.284 553.68C344.304 552.38 345.534 551.1 346.974 549.84C347.794 549.12 348.474 548.46 349.014 547.86C349.574 547.26 350.044 546.54 350.424 545.7C350.804 544.86 350.994 543.92 350.994 542.88C350.994 541.66 350.724 540.71 350.184 540.03C349.644 539.35 348.904 539.01 347.964 539.01C347.344 539.01 346.864 539.15 346.524 539.43C346.184 539.69 346.014 540.03 346.014 540.45C346.014 540.69 346.084 540.93 346.224 541.17C346.284 541.29 346.344 541.43 346.404 541.59C346.464 541.75 346.494 541.94 346.494 542.16C346.494 542.76 346.314 543.24 345.954 543.6C345.594 543.96 345.114 544.14 344.514 544.14C343.894 544.14 343.384 543.94 342.984 543.54C342.604 543.14 342.414 542.57 342.414 541.83C342.414 540.47 343.024 539.47 344.244 538.83C345.484 538.17 346.944 537.84 348.624 537.84C350.644 537.84 352.204 538.33 353.304 539.31C354.404 540.27 354.954 541.63 354.954 543.39C354.954 544.45 354.754 545.34 354.354 546.06C353.954 546.78 353.404 547.41 352.704 547.95C352.024 548.49 351.014 549.17 349.674 549.99C348.134 550.99 346.944 551.93 346.104 552.81C345.264 553.69 344.724 554.47 344.484 555.15L352.254 555.15C352.834 555.15 353.274 555.1 353.574 555C353.894 554.88 354.134 554.7 354.294 554.46C354.474 554.22 354.664 553.85 354.864 553.35L355.854 553.35L354.714 558L341.754 558L341.754 557.61ZM364.234 558.27C361.714 558.27 359.914 557.28 358.834 555.3C357.754 553.3 357.214 550.9 357.214 548.1C357.214 545.3 357.754 542.91 358.834 540.93C359.914 538.93 361.714 537.93 364.234 537.93C366.774 537.93 368.584 538.93 369.664 540.93C370.744 542.91 371.284 545.3 371.284 548.1C371.284 550.9 370.744 553.3 369.664 555.3C368.584 557.28 366.774 558.27 364.234 558.27ZM364.234 557.16C365.134 557.16 365.804 556.83 366.244 556.17C366.684 555.51 366.974 554.55 367.114 553.29C367.274 552.03 367.354 550.3 367.354 548.1C367.354 545.9 367.274 544.17 367.114 542.91C366.974 541.65 366.684 540.69 366.244 540.03C365.804 539.37 365.134 539.04 364.234 539.04C363.354 539.04 362.684 539.37 362.224 540.03C361.784 540.69 361.494 541.65 361.354 542.91C361.214 544.17 361.144 545.9 361.144 548.1C361.144 550.3 361.214 552.03 361.354 553.29C361.494 554.55 361.784 555.51 362.224 556.17C362.684 556.83 363.354 557.16 364.234 557.16ZM372.344 557.61C372.344 556.27 372.854 554.96 373.874 553.68C374.894 552.38 376.124 551.1 377.564 549.84C378.384 549.12 379.064 548.46 379.604 547.86C380.164 547.26 380.634 546.54 381.014 545.7C381.394 544.86 381.584 543.92 381.584 542.88C381.584 541.66 381.314 540.71 380.774 540.03C380.234 539.35 379.494 539.01 378.554 539.01C377.934 539.01 377.454 539.15 377.114 539.43C376.774 539.69 376.604 540.03 376.604 540.45C376.604 540.69 376.674 540.93 376.814 541.17C376.874 541.29 376.934 541.43 376.994 541.59C377.054 541.75 377.084 541.94 377.084 542.16C377.084 542.76 376.904 543.24 376.544 543.6C376.184 543.96 375.704 544.14 375.104 544.14C374.484 544.14 373.974 543.94 373.574 543.54C373.194 543.14 373.004 542.57 373.004 541.83C373.004 540.47 373.614 539.47 374.834 538.83C376.074 538.17 377.534 537.84 379.214 537.84C381.234 537.84 382.794 538.33 383.894 539.31C384.994 540.27 385.544 541.63 385.544 543.39C385.544 544.45 385.344 545.34 384.944 546.06C384.544 546.78 383.994 547.41 383.294 547.95C382.614 548.49 381.604 549.17 380.264 549.99C378.724 550.99 377.534 551.93 376.694 552.81C375.854 553.69 375.314 554.47 375.074 555.15L382.844 555.15C383.424 555.15 383.864 555.1 384.164 555C384.484 554.88 384.724 554.7 384.884 554.46C385.064 554.22 385.254 553.85 385.454 553.35L386.444 553.35L385.304 558L372.344 558L372.344 557.61ZM394.823 558.27C392.303 558.27 390.503 557.28 389.423 555.3C388.343 553.3 387.803 550.9 387.803 548.1C387.803 545.3 388.343 542.91 389.423 540.93C390.503 538.93 392.303 537.93 394.823 537.93C397.363 537.93 399.173 538.93 400.253 540.93C401.333 542.91 401.873 545.3 401.873 548.1C401.873 550.9 401.333 553.3 400.253 555.3C399.173 557.28 397.363 558.27 394.823 558.27ZM394.823 557.16C395.723 557.16 396.393 556.83 396.833 556.17C397.273 555.51 397.563 554.55 397.703 553.29C397.863 552.03 397.943 550.3 397.943 548.1C397.943 545.9 397.863 544.17 397.703 542.91C397.563 541.65 397.273 540.69 396.833 540.03C396.393 539.37 395.723 539.04 394.823 539.04C393.943 539.04 393.273 539.37 392.813 540.03C392.373 540.69 392.083 541.65 391.943 542.91C391.803 544.17 391.733 545.9 391.733 548.1C391.733 550.3 391.803 552.03 391.943 553.29C392.083 554.55 392.373 555.51 392.813 556.17C393.273 556.83 393.943 557.16 394.823 557.16Z" fill="#701111"/>
<path d="M440.457 548.758L439.086 534.394L426.008 532.237L438.341 526.746L436.814 511.367L447.303 522.756L459.553 517.301L452.488 528.427L462.245 539.057L447.759 535.951L440.457 548.758ZM441.295 544.444L447.027 534.306L458.397 536.83L450.624 528.666L456.284 520.136L446.746 524.383L438.425 514.985L439.758 527.494L430.385 531.667L440.511 533.168L441.295 544.444ZM442.06 540.852L441.561 532.208L433.912 531.181L440.983 528.032L439.706 517.863L446.491 525.58L453.562 522.432L449.208 528.804L455.298 534.959L446.441 532.991L442.06 540.852Z" fill="#701111"/>
<path d="M237.941 540.128L247.699 529.498L240.551 518.336L252.884 523.827L263.29 512.402L261.846 527.817L274.096 533.271L261.1 535.465L259.729 549.829L252.345 536.985L237.941 540.128ZM241.708 537.865L253.077 535.341L258.809 545.479L259.676 534.239L269.802 532.738L260.264 528.492L261.68 516.019L253.276 525.38L243.903 521.207L249.563 529.737L241.708 537.865ZM244.889 536.03L250.979 529.875L246.624 523.503L253.695 526.651L260.398 518.897L259.204 529.103L266.275 532.252L258.625 533.279L258.126 541.923L253.663 534.025L244.889 536.03Z" fill="#701111"/>
<path d="M223.575 491.774C222.848 491.096 222.29 490.649 221.903 490.435C221.496 490.24 221.143 490.205 220.843 490.33C220.543 490.454 220.164 490.763 219.705 491.255L206.497 505.419C206.02 505.93 205.73 506.34 205.626 506.648C205.504 506.976 205.564 507.326 205.805 507.697C206.028 508.089 206.503 508.624 207.23 509.302L206.322 510.276L198.097 502.606L199.005 501.633C199.732 502.311 200.299 502.747 200.705 502.942C201.093 503.156 201.446 503.191 201.764 503.047C202.045 502.904 202.424 502.577 202.901 502.065L216.109 487.901C216.568 487.409 216.858 486.999 216.98 486.672C217.083 486.364 217.014 486.024 216.773 485.652C216.532 485.28 216.058 484.764 215.351 484.104L216.259 483.13L224.483 490.8L223.575 491.774Z" fill="#701111"/>
<path d="M198.205 464.837L169.769 465.453L172.949 470.066C173.909 471.46 174.782 472.442 175.566 473.011C176.35 473.58 177.2 473.842 178.117 473.797C178.996 473.746 180.124 473.392 181.501 472.736L182.096 473.599L176.251 477.631L165.066 461.401L166.062 460.714L194.702 460.251L190.836 454.642C189.738 453.049 188.737 451.928 187.832 451.278C186.928 450.629 185.991 450.313 185.022 450.328C184.015 450.337 182.737 450.615 181.186 451.162L180.592 450.299L187.077 446.413L199.268 464.104L198.205 464.837Z" fill="#701111"/>
<path d="M164.961 414.974C165.98 413.484 166.722 412.311 167.186 411.454C167.615 410.582 167.868 409.812 167.944 409.142C168.01 408.448 167.891 407.727 167.587 406.98L168.819 406.477L172.984 416.708L171.751 417.211L171.554 416.726C171.321 416.153 171.042 415.933 170.718 416.065C170.444 416.177 170.052 416.569 169.542 417.242L162.865 426.41L164.831 427.175L172.152 424.188C172.775 423.934 173.21 423.684 173.458 423.437C173.681 423.201 173.762 422.864 173.699 422.425C173.637 421.986 173.423 421.318 173.058 420.422L174.291 419.919L178.532 430.337L177.299 430.84C176.924 429.919 176.606 429.279 176.344 428.922C176.057 428.574 175.752 428.394 175.427 428.381C175.103 428.369 174.629 428.489 174.006 428.743L156.078 436.058C155.43 436.322 154.995 436.573 154.772 436.809C154.523 437.055 154.431 437.398 154.493 437.837C154.531 438.286 154.737 438.971 155.112 439.892L153.879 440.395L149.639 429.977L150.871 429.474C151.246 430.395 151.577 431.03 151.864 431.377C152.125 431.735 152.431 431.915 152.781 431.917C153.095 431.905 153.576 431.767 154.223 431.503L162.852 427.983L150.178 423.705C149.578 423.515 149.153 423.47 148.904 423.572C148.655 423.673 148.602 423.898 148.743 424.247L149.291 425.591L148.058 426.094L144.41 417.133L145.643 416.63C146.16 417.899 146.975 418.975 148.088 419.855C149.177 420.747 150.722 421.582 152.724 422.362L158.443 424.643L164.961 414.974Z" fill="#701111"/>
<path d="M163.792 381.244C164.414 384.874 164.125 387.638 162.922 389.536C161.689 391.413 159.39 392.642 156.025 393.222L142.432 395.567C141.743 395.686 141.264 395.837 140.995 396.019C140.726 396.202 140.575 396.515 140.542 396.957C140.478 397.377 140.53 398.077 140.698 399.058L139.386 399.284L137.485 388.196L138.796 387.97C138.965 388.95 139.151 389.641 139.356 390.042C139.535 390.447 139.781 390.691 140.096 390.773C140.41 390.856 140.911 390.837 141.6 390.719L155.273 388.36C157.843 387.917 159.709 387.104 160.87 385.921C162.027 384.713 162.446 383.181 162.128 381.326C161.488 377.59 158.558 376.173 153.338 377.073L139.665 379.432C138.976 379.551 138.497 379.702 138.228 379.884C137.96 380.067 137.809 380.379 137.775 380.822C137.711 381.242 137.763 381.942 137.931 382.923L136.619 383.149L134.718 372.061L136.03 371.835C136.202 372.841 136.378 373.548 136.557 373.953C136.735 374.359 136.995 374.6 137.336 374.678C137.645 374.734 138.145 374.702 138.834 374.583L152.427 372.239C155.739 371.667 158.311 372.11 160.143 373.567C161.944 375.002 163.161 377.561 163.792 381.244Z" fill="#701111"/>
<path d="M151.964 349.18L152.012 348.173C156.914 346.944 159.446 344.597 159.608 341.133C159.676 339.682 159.341 338.51 158.602 337.614C157.837 336.718 156.743 336.237 155.319 336.172C154.084 336.115 153.033 336.444 152.165 337.158C151.27 337.87 150.464 338.991 149.747 340.519L149.343 341.389C148.294 343.655 147.149 345.406 145.907 346.641C144.666 347.849 142.985 348.405 140.864 348.307C139.44 348.242 138.18 347.861 137.082 347.165C135.959 346.44 135.105 345.432 134.519 344.14C133.907 342.847 133.643 341.315 133.726 339.542C133.767 338.656 133.87 337.907 134.033 337.295C134.196 336.684 134.415 336.048 134.688 335.387C134.926 334.887 135.053 334.489 135.067 334.193C135.075 334.005 135.029 333.855 134.926 333.743C134.824 333.631 134.627 333.527 134.335 333.433L134.373 332.627L141.683 332.559L141.638 333.526C139.658 333.839 138.135 334.469 137.068 335.416C136.001 336.363 135.432 337.588 135.362 339.092C135.299 340.435 135.637 341.541 136.377 342.409C137.09 343.276 138.05 343.737 139.259 343.793C140.172 343.834 140.976 343.616 141.671 343.136C142.34 342.655 142.906 342.062 143.37 341.357C143.806 340.65 144.279 339.757 144.787 338.676L145.325 337.53C146.281 335.502 147.39 333.951 148.652 332.879C149.914 331.779 151.566 331.276 153.607 331.37C155.89 331.474 157.774 332.328 159.26 333.93C160.747 335.506 161.413 337.932 161.26 341.208C161.208 342.31 161.085 343.206 160.891 343.896C160.698 344.587 160.451 345.249 160.152 345.881C160.122 345.961 160.061 346.119 159.969 346.357C159.85 346.594 159.785 346.82 159.775 347.035C159.763 347.303 159.832 347.549 159.983 347.771C160.109 347.965 160.264 348.093 160.449 348.156L160.41 349.002L151.964 349.18Z" fill="#701111"/>
<path d="M164.514 304.87C164.85 303.624 165.042 302.756 165.091 302.268C165.12 301.747 165.022 301.387 164.798 301.187C164.573 300.987 164.097 300.79 163.371 300.595L142.619 295.017L142.115 296.886C141.772 298.159 141.665 299.174 141.794 299.933C141.931 300.666 142.291 301.292 142.874 301.811C143.465 302.304 144.412 302.92 145.716 303.661L145.453 304.634L138.874 302.866L144.619 281.561L151.199 283.33L150.937 284.304C149.411 284.283 148.278 284.355 147.538 284.518C146.779 284.648 146.157 284.996 145.67 285.561C145.184 286.127 144.769 287.046 144.426 288.318L143.9 290.265L164.652 295.843C165.327 296.024 165.832 296.063 166.166 295.957C166.501 295.852 166.783 295.58 167.013 295.141C167.224 294.668 167.487 293.848 167.802 292.68L169.087 293.025L165.799 305.215L164.514 304.87Z" fill="#701111"/>
<path d="M184.122 250.931C185.011 251.029 185.661 250.973 186.073 250.763C186.462 250.54 186.886 249.988 187.345 249.105L188.525 249.719L183.496 259.381L182.315 258.768L183.154 257.157C183.328 256.823 183.375 256.529 183.295 256.276C183.215 256.022 183.043 255.827 182.781 255.69C182.59 255.591 182.369 255.522 182.117 255.482L175.028 254.434L171.228 261.734L176.301 266.918C176.502 267.113 176.698 267.261 176.889 267.36C177.389 267.62 177.807 267.428 178.143 266.784L179.056 265.03L180.236 265.644L176.361 273.088L175.181 272.474C175.665 271.544 175.869 270.831 175.793 270.337C175.694 269.831 175.337 269.236 174.723 268.553L158.14 250.474L159.723 247.432L184.122 250.931ZM173.643 254.214L162.434 252.525L162.378 252.632L170.253 260.727L173.643 254.214Z" fill="#701111"/>
<path d="M183.353 219.435L183.275 219.528L197.594 231.497C198.171 231.98 198.678 232.211 199.115 232.191C199.57 232.15 200.03 231.851 200.496 231.294L201.686 229.87L202.707 230.723L197.065 237.471L196.044 236.618L196.821 235.689C197.235 235.194 197.413 234.729 197.355 234.295C197.294 233.824 196.986 233.355 196.429 232.89L181.43 220.352C180.894 219.904 180.47 219.637 180.157 219.55C179.844 219.464 179.508 219.552 179.149 219.813C178.808 220.053 178.308 220.547 177.649 221.293L176.628 220.44L181.624 214.466L205.229 217.212L205.307 217.12L192.566 206.469C191.576 205.642 190.641 205.754 189.761 206.807L188.597 208.2L187.576 207.347L193.192 200.63L194.213 201.483L193.436 202.411C192.643 203.361 192.741 204.249 193.73 205.076L211.821 220.199L209.854 222.551L183.353 219.435Z" fill="#701111"/>
<path d="M226.529 204.327C227.317 203.718 227.848 203.239 228.123 202.891C228.381 202.522 228.473 202.179 228.399 201.863C228.325 201.547 228.082 201.123 227.672 200.591L215.821 185.247C215.394 184.694 215.037 184.341 214.75 184.19C214.462 184.038 214.116 184.051 213.71 184.229C213.287 184.386 212.682 184.769 211.894 185.377L211.081 184.325L226.596 172.334L230.686 177.629L229.888 178.246C228.774 177.375 227.844 176.787 227.097 176.481C226.372 176.158 225.613 176.099 224.82 176.305C224.048 176.493 223.12 177.007 222.034 177.846L219.672 179.672C219.183 180.05 218.91 180.38 218.855 180.66C218.821 180.924 218.968 181.269 219.297 181.694L225.111 189.223L228.623 186.509C229.389 185.917 229.896 185.406 230.142 184.978C230.394 184.512 230.465 184.032 230.356 183.539C230.248 183.046 229.972 182.359 229.53 181.478L230.296 180.886L235.544 187.681L234.777 188.273C234.037 187.622 233.45 187.193 233.017 186.984C232.568 186.754 232.094 186.713 231.596 186.86C231.103 186.969 230.473 187.32 229.707 187.912L226.195 190.626L231.542 197.549C231.969 198.102 232.337 198.446 232.645 198.581C232.953 198.716 233.351 198.681 233.837 198.475C234.307 198.247 235.011 197.772 235.947 197.048L236.76 198.101L227.342 205.379L226.529 204.327Z" fill="#701111"/>
<path d="M269.949 178.972C266.059 180.811 262.638 181.06 259.686 179.721C256.735 178.381 254.347 175.779 252.524 171.914C250.701 168.049 250.216 164.563 251.069 161.455C251.923 158.347 254.294 155.873 258.185 154.034C262.076 152.195 265.491 151.934 268.431 153.249C271.371 154.565 273.753 157.155 275.576 161.019C277.399 164.884 277.89 168.383 277.048 171.515C276.206 174.648 273.84 177.133 269.949 178.972ZM269.244 177.477C271.384 176.466 272.56 174.766 272.771 172.377C273.007 169.977 272.276 166.978 270.579 163.381C268.893 159.808 267.056 157.362 265.066 156.044C263.088 154.689 261.03 154.518 258.89 155.529C256.75 156.54 255.563 158.246 255.327 160.646C255.104 163.011 255.836 165.979 257.521 169.552C259.218 173.15 261.055 175.626 263.032 176.98C265.034 178.323 267.104 178.489 269.244 177.477Z" fill="#701111"/>
<path d="M295.635 167.03C296.605 166.808 297.288 166.597 297.683 166.396C298.073 166.169 298.3 165.896 298.365 165.578C298.431 165.26 298.389 164.773 298.24 164.118L293.932 145.209C293.776 144.527 293.6 144.057 293.404 143.799C293.207 143.541 292.887 143.407 292.444 143.398C291.994 143.363 291.285 143.457 290.315 143.679L290.019 142.381L302.169 139.601C305 138.953 307.262 139.015 308.954 139.785C310.646 140.556 311.726 141.964 312.191 144.008C312.609 145.843 312.396 147.449 311.552 148.828C310.702 150.181 309.379 151.214 307.584 151.929L307.602 152.007C309.342 152.022 310.676 152.489 311.602 153.408C312.523 154.3 313.351 155.696 314.087 157.596L314.384 158.355C314.854 159.571 315.464 160.493 316.214 161.121C316.99 161.743 317.889 161.937 318.912 161.703L319.207 163.001L312.798 164.467C311.933 164.059 311.095 162.982 310.284 161.237L307.868 156.082C307.42 155.082 306.827 154.418 306.09 154.09C305.348 153.736 304.4 153.691 303.247 153.955L301.084 154.45L303.036 163.02C303.186 163.675 303.362 164.145 303.564 164.43C303.761 164.688 304.081 164.821 304.525 164.83C304.968 164.839 305.661 164.736 306.605 164.52L306.9 165.817L295.931 168.327L295.635 167.03ZM303.085 152.338C304.92 151.918 306.168 151.163 306.83 150.074C307.518 148.979 307.657 147.527 307.245 145.719C306.827 143.885 306.073 142.637 304.985 141.976C303.891 141.289 302.44 141.152 300.631 141.566C299.661 141.788 299.049 142.066 298.794 142.4C298.559 142.702 298.508 143.141 298.639 143.718L300.726 152.877L303.085 152.338Z" fill="#701111"/>
<path d="M334.169 159.839C335.164 159.831 335.876 159.771 336.305 159.66C336.734 159.522 337.015 159.305 337.147 159.008C337.28 158.711 337.343 158.227 337.338 157.555L337.197 138.157C337.192 137.458 337.121 136.961 336.984 136.667C336.847 136.345 336.564 136.132 336.133 136.028C335.702 135.925 334.989 135.877 333.994 135.885L333.985 134.554L346.727 134.448C351.271 134.464 354.679 135.511 356.953 137.589C359.226 139.64 360.379 142.87 360.411 147.28C360.446 152.092 359.222 155.584 356.737 157.756C354.28 159.927 350.564 161.034 345.591 161.075L334.179 161.17L334.169 159.839ZM345.781 159.501C348.953 159.474 351.258 158.487 352.696 156.539C354.16 154.591 354.877 151.56 354.847 147.447C354.791 139.785 351.793 135.978 345.852 136.028C344.373 136.04 343.379 136.143 342.87 136.335C342.36 136.528 342.108 136.92 342.112 137.511L342.256 157.231C342.263 158.145 342.496 158.762 342.955 159.081C343.441 159.372 344.383 159.512 345.781 159.501Z" fill="#701111"/>
<path d="M426.281 178.203C422.927 176.685 420.803 174.896 419.907 172.837C419.047 170.765 419.322 168.173 420.733 165.062L426.432 152.497C426.721 151.86 426.866 151.379 426.865 151.054C426.865 150.729 426.691 150.429 426.344 150.154C426.033 149.865 425.424 149.516 424.518 149.106L425.068 147.893L435.313 152.532L434.763 153.745C433.858 153.335 433.181 153.102 432.734 153.047C432.298 152.968 431.957 153.035 431.713 153.249C431.468 153.463 431.201 153.888 430.912 154.525L425.18 167.164C424.102 169.54 423.726 171.54 424.052 173.164C424.402 174.799 425.434 176.004 427.148 176.78C430.6 178.343 433.42 176.712 435.609 171.887L441.341 159.248C441.63 158.611 441.775 158.13 441.774 157.805C441.774 157.48 441.6 157.18 441.253 156.905C440.941 156.616 440.333 156.267 439.427 155.856L439.977 154.644L450.222 159.283L449.672 160.495C448.742 160.074 448.059 159.824 447.623 159.745C447.186 159.665 446.841 159.745 446.585 159.983C446.365 160.208 446.11 160.639 445.821 161.276L440.122 173.842C438.733 176.904 436.921 178.784 434.686 179.485C432.486 180.171 429.684 179.744 426.281 178.203Z" fill="#701111"/>
<path d="M469.618 176.892L469.521 176.819L458.331 191.778C457.88 192.381 457.676 192.9 457.719 193.336C457.784 193.787 458.107 194.23 458.688 194.665L460.173 195.775L459.375 196.841L452.338 191.579L453.136 190.513L454.104 191.237C454.621 191.624 455.094 191.776 455.524 191.695C455.992 191.608 456.443 191.273 456.878 190.692L468.6 175.023C469.019 174.463 469.263 174.024 469.333 173.706C469.403 173.389 469.297 173.059 469.018 172.715C468.759 172.387 468.24 171.915 467.46 171.298L468.257 170.232L474.488 174.891L472.999 198.615L473.096 198.687L483.053 185.376C483.827 184.342 483.665 183.415 482.567 182.594L481.115 181.508L481.912 180.442L488.917 185.68L488.119 186.746L487.151 186.022C486.161 185.282 485.279 185.429 484.506 186.462L470.367 205.363L467.914 203.528L469.618 176.892Z" fill="#701111"/>
<path d="M488.651 221.093C489.3 221.846 489.806 222.35 490.169 222.605C490.551 222.843 490.899 222.916 491.21 222.824C491.522 222.732 491.932 222.467 492.441 222.028L507.102 209.373C507.632 208.916 507.965 208.54 508.101 208.245C508.257 207.932 508.236 207.578 508.036 207.182C507.857 206.769 507.443 206.186 506.794 205.433L507.802 204.563L515.148 213.077L514.14 213.947C513.49 213.195 512.974 212.699 512.592 212.462C512.229 212.207 511.882 212.134 511.55 212.243C511.256 212.355 510.844 212.639 510.315 213.096L495.654 225.751C495.145 226.19 494.812 226.566 494.655 226.879C494.519 227.174 494.551 227.519 494.75 227.915C494.949 228.311 495.365 228.875 495.997 229.608L494.989 230.478L487.643 221.963L488.651 221.093Z" fill="#701111"/>
<path d="M530.225 240.024C530.632 239.59 530.91 239.226 531.057 238.933C531.204 238.639 531.236 238.302 531.152 237.919C531.091 237.524 530.895 237.019 530.563 236.405L531.734 235.771L536.751 245.065L535.58 245.698L534.738 244.137C534.431 243.57 534.065 243.401 533.639 243.631C533.474 243.721 533.303 243.859 533.129 244.045L519.54 258.449L519.635 258.626L538.508 255.113C539.01 255.025 539.38 254.917 539.616 254.789C539.853 254.661 539.98 254.501 539.998 254.307C540.04 254.102 539.978 253.845 539.812 253.538L538.893 251.835L540.064 251.202L544.028 258.544L542.857 259.178C542.41 258.35 541.93 257.8 541.416 257.528C540.902 257.256 540.22 257.181 539.37 257.305L515.147 261.098L513.481 258.012L530.225 240.024Z" fill="#701111"/>
<path d="M528.56 288.422C528.833 289.378 529.081 290.048 529.302 290.432C529.55 290.808 529.834 291.02 530.155 291.068C530.476 291.116 530.96 291.047 531.606 290.862L550.258 285.517C550.93 285.324 551.39 285.122 551.637 284.912C551.91 284.693 552.04 284.363 552.025 283.92C552.01 283.476 551.866 282.777 551.593 281.821L552.873 281.454L558.287 300.411L551.811 302.267L551.524 301.259C552.753 300.571 553.653 299.95 554.221 299.395C554.816 298.833 555.165 298.146 555.269 297.334C555.38 296.547 555.247 295.495 554.87 294.176L554.007 291.153C553.837 290.558 553.632 290.183 553.392 290.029C553.16 289.9 552.785 289.909 552.268 290.057L543.737 292.502L544.833 296.34C545.091 297.245 545.374 297.891 545.68 298.278C546.02 298.684 546.435 298.915 546.926 298.97C547.425 299.05 548.165 299.048 549.148 298.962L549.424 299.931L541.204 302.287L540.927 301.318C541.806 300.87 542.423 300.484 542.777 300.159C543.139 299.859 543.344 299.451 543.392 298.934C543.474 298.435 543.385 297.734 543.127 296.829L542.031 292.991L533.578 295.414C532.802 295.636 532.272 295.886 531.988 296.163C531.711 296.466 531.596 296.946 531.644 297.604C531.699 298.287 531.937 299.365 532.358 300.838C532.779 302.311 533.288 303.409 533.886 304.133C534.492 304.882 535.249 305.378 536.157 305.621C537.066 305.864 538.316 305.981 539.907 305.972L540.184 306.941L532.916 308.521L527.281 288.788L528.56 288.422Z" fill="#701111"/>
<path d="M537.247 326.097C537.308 327.089 537.405 327.797 537.539 328.22C537.699 328.641 537.931 328.909 538.235 329.025C538.538 329.14 539.025 329.177 539.696 329.135L559.056 327.924C559.754 327.88 560.246 327.782 560.533 327.629C560.82 327.476 561.004 327.182 561.085 326.746C561.193 326.308 561.216 325.593 561.155 324.6L562.483 324.517L563.249 336.954C563.427 339.852 562.998 342.075 561.962 343.621C560.926 345.167 559.361 346.006 557.268 346.137C555.39 346.255 553.839 345.786 552.616 344.731C551.42 343.675 550.615 342.203 550.203 340.316L550.122 340.321C549.824 342.037 549.146 343.278 548.089 344.045C547.058 344.81 545.546 345.403 543.552 345.824L542.754 345.995C541.478 346.263 540.469 346.717 539.727 347.356C538.987 348.022 538.649 348.878 538.713 349.925L537.385 350.008L536.981 343.447C537.525 342.659 538.724 342.005 540.578 341.485L546.058 339.929C547.118 339.648 547.87 339.169 548.313 338.495C548.783 337.819 548.982 336.891 548.909 335.71L548.773 333.497L539.999 334.046C539.328 334.088 538.835 334.186 538.522 334.34C538.235 334.493 538.051 334.787 537.97 335.223C537.889 335.659 537.878 336.36 537.938 337.326L536.61 337.41L535.918 326.18L537.247 326.097ZM550.532 335.811C550.647 337.689 551.188 339.043 552.155 339.871C553.124 340.726 554.534 341.096 556.385 340.98C558.264 340.862 559.617 340.32 560.447 339.352C561.303 338.383 561.674 336.972 561.56 335.121C561.499 334.128 561.324 333.479 561.036 333.174C560.776 332.893 560.351 332.772 559.761 332.809L550.383 333.396L550.532 335.811Z" fill="#701111"/>
<path d="M544.418 370.61L544.262 371.606C539.257 372.298 536.486 374.357 535.95 377.784C535.725 379.219 535.932 380.421 536.569 381.391C537.233 382.365 538.269 382.961 539.677 383.18C540.898 383.37 541.979 383.157 542.919 382.541C543.885 381.929 544.808 380.903 545.686 379.461L546.182 378.64C547.469 376.5 548.796 374.883 550.164 373.789C551.528 372.722 553.26 372.352 555.358 372.678C556.766 372.897 557.977 373.411 558.993 374.222C560.031 375.064 560.772 376.159 561.214 377.507C561.682 378.858 561.78 380.411 561.505 382.164C561.368 383.041 561.186 383.775 560.957 384.365C560.729 384.956 560.443 385.564 560.1 386.191C559.809 386.663 559.64 387.045 559.595 387.337C559.565 387.523 559.596 387.678 559.685 387.8C559.775 387.923 559.96 388.047 560.239 388.172L560.115 388.969L552.841 388.247L552.991 387.291C554.992 387.193 556.574 386.732 557.737 385.906C558.9 385.08 559.598 383.923 559.831 382.435C560.039 381.106 559.822 379.971 559.18 379.027C558.565 378.088 557.66 377.526 556.465 377.34C555.562 377.2 554.739 377.33 553.996 377.732C553.28 378.137 552.653 378.666 552.116 379.317C551.605 379.973 551.039 380.81 550.417 381.829L549.758 382.91C548.588 384.824 547.318 386.246 545.948 387.176C544.575 388.132 542.878 388.454 540.86 388.14C538.602 387.789 536.821 386.737 535.518 384.983C534.21 383.256 533.809 380.772 534.316 377.53C534.487 376.441 534.706 375.564 534.973 374.898C535.24 374.232 535.557 373.601 535.922 373.004C535.961 372.929 536.039 372.777 536.156 372.551C536.3 372.328 536.388 372.111 536.422 371.898C536.463 371.632 536.421 371.381 536.295 371.144C536.191 370.937 536.05 370.793 535.873 370.711L536.004 369.874L544.418 370.61Z" fill="#701111"/>
<path d="M527.394 412.689C527.033 413.616 526.824 414.3 526.768 414.739C526.737 415.189 526.835 415.53 527.061 415.763C527.288 415.995 527.714 416.233 528.341 416.477L546.374 423.492C547.025 423.745 547.513 423.862 547.837 423.844C548.187 423.836 548.49 423.651 548.746 423.289C549.028 422.937 549.349 422.297 549.711 421.37L550.95 421.852L546.863 432.339L545.623 431.857C545.984 430.929 546.18 430.241 546.211 429.791C546.268 429.352 546.17 429.01 545.918 428.768C545.682 428.561 545.238 428.331 544.587 428.077L526.553 421.062C525.927 420.819 525.439 420.701 525.09 420.71C524.765 420.728 524.475 420.918 524.218 421.28C523.962 421.642 523.658 422.274 523.306 423.176L522.066 422.694L526.154 412.207L527.394 412.689Z" fill="#701111"/>
<path d="M509.174 450.172C508.458 451.246 507.999 452.007 507.797 452.454C507.603 452.939 507.58 453.312 507.729 453.573C507.878 453.834 508.266 454.173 508.892 454.59L526.77 466.504L527.844 464.893C528.576 463.796 529.001 462.868 529.121 462.107C529.226 461.369 529.084 460.66 528.697 459.982C528.295 459.326 527.594 458.439 526.596 457.321L527.155 456.482L532.824 460.26L520.579 478.621L514.91 474.843L515.47 474.004C516.909 474.51 518.005 474.804 518.758 474.886C519.518 475.005 520.219 474.874 520.86 474.493C521.502 474.113 522.188 473.374 522.919 472.278L524.039 470.599L506.161 458.685C505.58 458.298 505.114 458.1 504.763 458.093C504.413 458.086 504.059 458.254 503.701 458.597C503.35 458.978 502.839 459.671 502.167 460.678L501.06 459.941L508.067 449.434L509.174 450.172Z" fill="#701111"/>
<path d="M488.724 512.551L487.802 511.593C488.616 510.809 489.104 510.153 489.267 509.623C489.448 509.113 489.414 508.419 489.166 507.539L485.095 494.172L480.093 488.973C479.608 488.469 479.206 488.167 478.884 488.066C478.544 487.983 478.143 488.071 477.681 488.328C477.239 488.605 476.591 489.154 475.738 489.975L474.816 489.016L483.596 480.567L484.518 481.526C483.665 482.346 483.092 482.972 482.798 483.404C482.523 483.856 482.439 484.234 482.548 484.54C482.656 484.847 482.952 485.252 483.436 485.755L488.159 490.664L501.697 495.424C502.547 495.725 503.22 495.823 503.716 495.719C504.213 495.614 504.8 495.235 505.478 494.582L506.401 495.541L498.493 503.151L497.571 502.192L498.966 500.849C499.373 500.458 499.455 500.136 499.213 499.884C499.101 499.768 498.885 499.64 498.565 499.501L487.245 495.068L487.157 495.152L491.214 506.351C491.359 506.696 491.497 506.937 491.627 507.072C491.907 507.363 492.25 507.312 492.657 506.92L493.965 505.661L494.888 506.62L488.724 512.551Z" fill="#701111"/>
<path d="M298.257 389.923C298.225 389.994 298.208 390.032 298.208 390.032V308.212H314.191V273H231V308.212H246.982V396.856H231V432V418.352C231 418.352 233.39 408.798 240.9 402.315C240.9 402.315 238.511 408.901 242.958 420.409C243.015 420.698 243.078 421.15 243.144 421.625C243.279 422.592 243.427 423.658 243.567 423.658C243.567 423.658 243.724 422.054 243.848 420.409C244.604 410.54 257.193 373.406 263.432 365.807C262.408 371.794 247.949 407.602 254.803 420.409C256.801 424.317 256.073 420.409 256.073 420.409C256.221 410.2 261.043 372.29 274.357 356.078C273.333 363.077 261.319 396.358 270.681 420.409C270.842 420.756 270.987 421.159 271.14 421.586C271.382 422.26 272.079 423.155 272.031 423.659C272.031 423.659 272.171 422.072 272.403 420.409C273.641 411.572 277.559 381.502 277.559 367.769C279.137 370.584 284.825 401.613 283.355 420.409H283.515C284.868 411.997 286.622 384.341 288.076 361.431C288.756 350.699 289.848 340.899 289.848 334.826C291.427 337.146 295.111 353.071 294.43 408.901C294.84 403.484 296.295 396.341 298.257 389.923ZM298.257 389.923C300.241 383.434 302.743 377.685 305.209 375.206C305.209 375.206 302.811 386.261 301.669 396.856M471 432V402.315M471 402.315V362.668H466.847M471 402.315C470.211 380.503 468.539 368.885 466.847 362.668M466.847 362.668C465.391 357.321 464.172 356.078 464.172 356.078C464.36 358.264 464.493 360.465 464.577 362.668M464.577 362.668C465.721 392.538 457.962 422.819 457.082 423.246C457.11 423.066 457.358 420.412 457.358 420.412C460.619 397.626 453.248 384.573 453.248 384.573C453.93 405.727 448.137 415.729 442.333 420.412C440.158 422.165 438.539 423.662 438.539 423.662C438.426 423.662 438.321 422.583 438.227 421.611C438.182 421.143 438.139 420.699 438.099 420.412C438.431 399.575 443.376 380.101 446.085 369.433C446.85 366.419 448.468 362.668 448.468 362.668M464.577 362.668H448.468M448.468 362.668C448.468 362.054 449.469 359.166 449.492 358.983C449.309 359.135 446.966 362.412 446.761 362.668M446.761 362.668H443.27L433.105 396.197L431.782 396.242M446.761 362.668C442.368 368.145 435.836 398.562 431.782 414.258C431.782 406.41 431.764 400.472 431.782 396.242M431.782 396.242C431.842 382.292 428.326 378.923 428.326 378.923C429.037 385.577 429.004 391.303 428.535 396.242M428.535 396.242H418.162M428.535 396.242C427.563 406.478 424.72 413.333 422.759 418.061C422.407 418.911 422.083 419.693 421.803 420.412C421.154 422.089 420.722 423.662 420.722 423.662C420.524 423.662 420.34 422.667 420.164 421.715C420.073 421.22 419.984 420.738 419.896 420.412C417.775 412.492 417.682 403.486 418.162 396.242M418.162 396.242C418.687 388.332 419.896 382.523 419.896 382.523C418.649 383.827 416.291 389.684 414.063 396.242M414.063 396.242H401.674L469.292 305.755V273H329.754V339.33H358.645L366.636 308.212H398.191L340.84 382.523M414.063 396.242C412.445 401.005 410.896 406.138 409.891 410.163C405.794 400.951 400.673 399.6 400.673 399.6C402.721 413.774 397.373 418.774 397.373 418.774C399.828 391.148 394.528 386.279 391.228 384.241C396.918 395.491 383.241 418.248 383.241 418.248C381.919 398.517 385.232 383.383 388.36 369.093C390.03 361.465 391.648 354.077 392.479 346.358C385.935 353.218 379.572 382.28 376.91 394.441C376.323 397.122 375.915 398.981 375.726 399.6C375.54 398.963 375.306 397.772 374.997 396.197C373.644 389.304 370.847 375.06 364.326 367.769C369.265 392.079 365.509 415.622 364.197 419.838C362.778 413.916 358.34 381.502 357.436 378.923C355.267 391.056 347.073 412.934 342.939 420.409C342.03 422.048 341.461 423.659 341.461 423.659C341.303 423.659 341.162 422.622 341.03 421.659C340.964 421.178 340.901 420.715 340.84 420.409C338.581 409.186 339.017 396.701 340.84 382.523M340.84 382.523C342.35 370.776 345.146 356.078 345.146 356.078C342.699 357.724 339.126 366.759 337.174 372.29C331.41 388.618 329.226 411.775 328.23 420.413C328.038 422.079 327.942 423.662 327.942 423.662C327.907 423.662 327.87 422.779 327.833 421.89C327.809 421.324 327.785 420.755 327.762 420.413C327.185 412.288 326.898 403.76 326.757 396.856C326.586 388.499 326.628 382.523 326.628 382.523C325.162 383.914 323.627 390.092 322.494 396.856C320.699 407.57 319.641 420.425 319.386 423.155C319.355 423.483 319.339 423.659 319.338 423.659L319.446 420.409C319.957 411.431 320.014 403.618 319.772 396.856M319.772 396.856C318.766 368.663 312.58 358.738 312.58 358.738C313.1 368.864 311.625 385.046 310.203 396.856M319.772 396.856H319.762M310.203 396.856H301.669M310.203 396.856C308.791 408.588 307.44 415.968 306.059 420.409C305.538 422.089 305.209 423.659 305.209 423.659C304.788 423.659 304.409 422.567 304.065 421.574C303.911 421.131 303.764 420.707 303.623 420.409C300.651 414.107 300.693 405.904 301.669 396.856" stroke="#701111" stroke-width="8"/>
<path d="M231 432V396.803H246.96V308.197H231V273H314.072V308.197H298.113V396.803L330.227 397.008V432H231Z" fill="#701111"/>
<path d="M330.227 432V397.008L397.954 308.197H366.443L358.464 339.301H329.613V273H468.954V305.741L401.432 396.189H432.124L442.968 362.629H471V432H330.227Z" fill="#701111"/>
<path d="M330.227 397.008L298.113 396.803V308.197H314.072V273H231V308.197H246.96V396.803H231V432H330.227M330.227 397.008V432M330.227 397.008L397.954 308.197H366.443L358.464 339.301H329.613V273H468.954V305.741L401.432 396.189H432.124L442.968 362.629H471V432H330.227" stroke="#701111" stroke-width="8"/>
<path d="M464.5 356.283C467.227 388.161 458.364 423.091 457.42 423.55C457.448 423.37 457.696 420.712 457.696 420.712C460.952 397.892 453.591 384.82 453.591 384.82C454.273 406.006 448.488 416.022 442.692 420.712C440.52 422.468 438.463 423.966 438.463 423.966C438.296 423.966 438.588 421.597 438.463 420.712C438.904 393.021 447.454 367.735 448.136 362.268C444.045 365.685 436.886 395.071 432.454 411.473C434.159 387.212 428.704 379.162 428.704 379.162C431.152 402.117 424.771 414.048 422.191 420.712C421.543 422.391 421.111 423.966 421.111 423.966C420.811 423.966 420.543 421.666 420.287 420.712C415.855 404.119 420.287 382.767 420.287 382.767C418.136 385.021 412.682 400.866 410.295 410.448C406.204 401.222 401.091 399.87 401.091 399.87C403.136 414.064 397.795 419.071 397.795 419.071C400.247 391.405 394.273 386.87 391.659 384.487C397.682 395.755 383.684 418.544 383.684 418.544C381.659 388.237 390.523 368.76 392.909 346.55C384.933 354.933 377.227 396.438 376.179 399.87C375.182 396.438 372.795 376.961 364.795 367.992C369.727 392.338 365.977 415.915 364.667 420.136C363.25 414.206 357.915 379.162 357.915 379.162C355.75 391.312 347.567 413.222 343.439 420.709C342.531 422.35 341.963 423.963 341.963 423.963C341.727 423.963 341.527 421.628 341.343 420.709C337.219 400.158 345.643 356.283 345.643 356.283C335.987 362.798 330.083 409.132 328.751 420.712C328.559 422.381 328.463 423.967 328.463 423.967C328.407 423.967 328.343 421.594 328.283 420.712C327.011 402.725 327.151 382.767 327.151 382.767C323.091 386.632 319.891 423.963 319.871 423.963L319.979 420.709C322.619 374.226 313.123 358.948 313.123 358.948C314.159 379.162 309.379 411.783 306.611 420.709C306.091 422.391 305.763 423.963 305.763 423.963C305.155 423.963 304.635 421.677 304.179 420.709C297.735 407.006 305.763 375.44 305.763 375.44C300.864 380.378 295.823 398.274 294.999 409.184C295.679 353.272 290.423 335 290.423 335C288.932 354.409 286.083 408.338 284.099 420.709C283.995 421.361 283.983 421.438 284.099 420.709H283.94C285.407 401.885 278.151 367.992 278.151 367.992C278.151 382.767 274.24 411.859 273.003 420.709C272.771 422.374 272.632 423.963 272.632 423.963C272.004 422.877 271.7 421.604 271.283 420.709C261.935 396.622 274.955 356.283 274.955 356.283C260.707 372.761 256.844 410.485 256.696 420.708C256.68 421.711 256.684 421.496 256.696 420.708C256.696 420.708 257.424 424.622 255.428 420.708C248.584 407.883 262.341 369.785 262.341 369.785C255.523 380.036 245.244 410.825 244.488 420.708C244.365 422.356 244.209 423.963 244.209 423.963C244 423.963 243.773 421.586 243.6 420.708C239.159 409.184 241.886 402.247 241.886 402.247C234.386 408.739 232 418.544 232 418.544V433H472C472.036 373.442 464.5 356.283 464.5 356.283Z" fill="white"/>
<path d="M231 433V397.103H246.96V308.282H231V273H314.072V308.282H298.113V390.265C298.113 390.265 298.13 390.227 298.161 390.156M298.161 390.156C296.202 396.587 294.75 403.743 294.34 409.172C295.02 353.23 291.341 337.274 289.764 334.949C289.764 341.034 288.674 350.853 287.995 361.607C286.543 384.562 284.791 412.273 283.44 420.702H283.28C284.748 401.869 279.068 370.778 277.492 367.957C277.492 381.718 273.58 411.848 272.344 420.702C272.112 422.368 271.973 423.958 271.973 423.958C271.588 423.293 271.325 422.557 271.083 421.881C270.93 421.453 270.786 421.05 270.624 420.702C261.276 396.603 273.273 363.256 274.295 356.243C261 372.487 256.185 410.473 256.037 420.702C256.037 420.702 256.765 424.617 254.769 420.702C247.925 407.87 262.364 371.991 263.386 365.991C257.155 373.606 244.585 410.813 243.829 420.702C243.705 422.351 243.549 423.958 243.549 423.958C243.41 423.958 243.262 422.89 243.127 421.921C243.061 421.444 242.998 420.992 242.941 420.702C238.5 409.172 240.886 402.573 240.886 402.573C233.386 409.068 231 418.983 231 418.983M298.161 390.156C300.142 383.654 302.641 377.894 305.104 375.41C305.104 375.41 302.709 386.486 301.568 397.103M471 433V416.151V402.721M471 402.721V362.846H466.512M471 402.721C470.212 380.865 468.202 369.076 466.512 362.846M466.512 362.846C465.058 357.489 463.841 356.243 463.841 356.243C464.028 358.434 464.161 360.639 464.245 362.846M464.245 362.846C465.388 392.776 457.64 423.117 456.761 423.545C456.789 423.364 457.037 420.706 457.037 420.706C460.293 397.874 452.932 384.795 452.932 384.795C453.614 405.991 447.829 416.013 442.033 420.706C439.861 422.462 438.245 423.962 438.245 423.962C438.131 423.962 438.027 422.881 437.933 421.906C437.888 421.437 437.845 420.993 437.804 420.706C438.136 399.827 443.074 380.314 445.779 369.625C446.543 366.605 448.159 362.846 448.159 362.846M464.245 362.846H448.159M448.159 362.846C448.159 362.231 449.159 359.337 449.182 359.154C448.999 359.306 446.66 362.59 446.455 362.846M446.455 362.846H442.968L432.818 396.443L431.497 396.487M446.455 362.846C442.068 368.334 435.545 398.812 431.497 414.538C431.497 406.675 431.479 400.726 431.497 396.487M431.497 396.487C431.556 382.51 428.045 379.134 428.045 379.134C428.756 385.801 428.723 391.538 428.254 396.487M428.254 396.487H417.896M428.254 396.487C427.284 406.743 424.445 413.613 422.487 418.35C422.135 419.202 421.811 419.984 421.532 420.706C420.884 422.386 420.452 423.962 420.452 423.962C420.255 423.962 420.071 422.964 419.896 422.01C419.805 421.515 419.716 421.032 419.628 420.706C417.51 412.77 417.416 403.746 417.896 396.487M417.896 396.487C418.421 388.561 419.628 382.74 419.628 382.74C418.382 384.047 416.028 389.916 413.803 396.487M413.803 396.487H401.432L468.954 305.821V273H329.613V339.462H358.464L366.443 308.282H397.954L340.684 382.74M413.803 396.487C412.188 401.26 410.64 406.402 409.636 410.436C405.545 401.205 400.432 399.852 400.432 399.852C402.477 414.054 397.136 419.064 397.136 419.064C399.588 391.383 394.295 386.504 391 384.462C396.682 395.735 383.025 418.537 383.025 418.537C381.705 398.767 385.013 383.603 388.137 369.284C389.804 361.641 391.419 354.238 392.25 346.504C385.715 353.377 379.361 382.497 376.702 394.682C376.116 397.369 375.71 399.232 375.52 399.852C375.335 399.214 375.101 398.02 374.793 396.443C373.441 389.535 370.649 375.263 364.136 367.957C369.068 392.316 365.318 415.906 364.008 420.13C362.591 414.197 358.159 381.718 357.256 379.134C355.091 391.291 346.908 413.212 342.78 420.702C341.872 422.344 341.304 423.958 341.304 423.958C341.146 423.958 341.005 422.92 340.874 421.955C340.808 421.473 340.745 421.009 340.684 420.702C338.428 409.457 338.864 396.947 340.684 382.74M340.684 382.74C342.192 370.971 344.984 356.243 344.984 356.243C342.541 357.892 338.972 366.945 337.023 372.487C331.268 388.848 329.087 412.051 328.092 420.706C327.9 422.376 327.804 423.962 327.804 423.962C327.77 423.962 327.733 423.077 327.695 422.186C327.671 421.619 327.647 421.049 327.624 420.706C327.049 412.565 326.762 404.02 326.621 397.103C326.45 388.729 326.492 382.74 326.492 382.74C325.029 384.134 323.495 390.325 322.364 397.103C320.572 407.837 319.515 420.718 319.26 423.454C319.23 423.783 319.213 423.958 319.212 423.958L319.32 420.702C319.831 411.706 319.887 403.878 319.646 397.103M319.646 397.103C318.641 368.853 312.464 358.909 312.464 358.909C312.984 369.055 311.51 385.269 310.091 397.103M319.646 397.103H319.636M310.091 397.103H301.568M310.091 397.103C308.681 408.858 307.331 416.252 305.952 420.702C305.432 422.386 305.104 423.958 305.104 423.958C304.683 423.958 304.305 422.864 303.961 421.869C303.807 421.425 303.661 421.001 303.52 420.702C300.552 414.388 300.594 406.168 301.568 397.103" stroke="white" stroke-width="2"/>
</svg>
