<svg fill="none" height="700" viewBox="0 0 700 700" width="700" xmlns="http://www.w3.org/2000/svg"><path d="m0 0h700v700h-700z" fill="#fff"/><path d="m116.96 500.03c2.22 0 3.81-.12 4.77-.36.96-.3 1.59-.78 1.89-1.44s.45-1.74.45-3.24v-43.2c0-1.56-.15-2.67-.45-3.33-.3-.72-.93-1.2-1.89-1.44-.96-.3-2.55-.45-4.77-.45v-2.97h25.11v2.97c-2.22 0-3.81.15-4.77.45-.96.24-1.59.72-1.89 1.44-.24.66-.36 1.77-.36 3.33v43.2c0 1.5.15 2.61.45 3.33.3.66.93 1.11 1.89 1.35s2.52.36 4.68.36v2.97h-25.11zm29.897-.09 24.75-35.73h-7.2c-2.88 0-5.13.33-6.75.99-1.56.66-2.76 1.71-3.6 3.15-.78 1.38-1.47 3.36-2.07 5.94h-2.34l.99-13.59h32.94v3.15l-24.75 35.64h9.99c3.12 0 5.55-.33 7.29-.99s3.06-1.74 3.96-3.24c.96-1.56 1.8-3.78 2.52-6.66h2.34l-.99 14.4h-37.08zm87.531.09v2.97h-19.17v-2.97h.81c.54 0 .96-.09 1.26-.27.36-.18.54-.42.54-.72s-.18-.72-.54-1.26-.78-1.14-1.26-1.8l-9.18-12.69-2.97 3.51v8.73c0 1.26.12 2.22.36 2.88.3.6.84 1.02 1.62 1.26.84.24 2.1.36 3.78.36v2.97h-22.05v-2.97c1.8 0 3.09-.12 3.87-.36.84-.3 1.38-.75 1.62-1.35s.36-1.53.36-2.79v-45.27c0-1.68-.18-2.79-.54-3.33-.36-.6-1.05-.9-2.07-.9h-2.7v-3.06l13.23-2.07h2.52v41.49l9.18-12.15c1.8-2.4 2.7-4.14 2.7-5.22 0-.9-.54-1.35-1.62-1.35h-2.07v-2.97h20.07v2.97h-1.26c-2.58 0-4.95.6-7.11 1.8s-4.35 3.09-6.57 5.67l-4.14 4.86 12.15 16.65c2.04 2.82 3.63 4.77 4.77 5.85 1.2 1.02 2.37 1.53 3.51 1.53zm43.642-4.5c0 1.26.12 2.22.36 2.88.3.6.84 1.02 1.62 1.26.84.24 2.1.36 3.78.36v2.97h-15.93v-6.21h-.09c-5.58 4.8-10.83 7.2-15.75 7.2-3.84 0-6.78-1.08-8.82-3.24-1.98-2.16-2.97-5.31-2.97-9.45v-22.32c0-1.68-.18-2.79-.54-3.33s-1.08-.81-2.16-.81h-2.7v-2.97l13.14-1.62h2.61v28.44c0 3 .66 5.34 1.98 7.02 1.38 1.62 3.33 2.43 5.85 2.43 1.56 0 3.15-.48 4.77-1.44 1.68-1.02 3.15-2.19 4.41-3.51v-24.21c0-1.68-.18-2.79-.54-3.33-.3-.54-.99-.81-2.07-.81h-2.7v-2.97l13.14-1.62h2.61zm27.679 8.46c-1.62 0-2.97-.15-4.05-.45-1.02-.24-2.25-.6-3.69-1.08-1.38-.6-2.52-.9-3.42-.9-.72 0-1.29.15-1.71.45-.36.24-.72.66-1.08 1.26h-1.71l-.81-14.85h2.25c1.14 3.6 2.94 6.51 5.4 8.73 2.52 2.22 5.28 3.33 8.28 3.33 2.16 0 3.84-.57 5.04-1.71 1.2-1.2 1.8-2.79 1.8-4.77 0-1.26-.27-2.28-.81-3.06-.54-.84-1.35-1.59-2.43-2.25s-2.85-1.59-5.31-2.79l-1.8-.9c-4.14-2.04-7.02-3.93-8.64-5.67-1.56-1.8-2.34-4.11-2.34-6.93 0-4.02 1.32-7.11 3.96-9.27 2.64-2.22 6.24-3.33 10.8-3.33 2.46 0 4.8.39 7.02 1.17 1.32.36 2.22.54 2.7.54.66 0 1.11-.12 1.35-.36s.39-.48.45-.72c.12-.3.18-.48.18-.54h1.89l.72 13.23h-2.25c-.72-2.88-2.13-5.22-4.23-7.02-2.04-1.8-4.38-2.7-7.02-2.7-1.86 0-3.42.45-4.68 1.35-1.2.9-1.8 2.1-1.8 3.6 0 2.7 2.04 4.98 6.12 6.84l2.79 1.26c2.88 1.32 5.19 2.55 6.93 3.69s3.12 2.55 4.14 4.23c1.02 1.62 1.53 3.63 1.53 6.03 0 4.08-1.44 7.38-4.32 9.9-2.82 2.46-6.57 3.69-11.25 3.69zm34.052 0c-3.3 0-5.88-.9-7.74-2.7-1.86-1.86-2.79-4.47-2.79-7.83v-29.16h-5.31v-2.97c3.12-.96 5.61-2.61 7.47-4.95 1.86-2.4 3.33-5.67 4.41-9.81h3.78v14.13h9.63v3.6h-9.63v26.01c0 2.7.51 4.71 1.53 6.03s2.61 1.98 4.77 1.98c1.62 0 3.12-.3 4.5-.9l.99 2.25c-2.22 1.44-4.14 2.52-5.76 3.24-1.56.72-3.51 1.08-5.85 1.08zm55.567-2.88c-1.32.78-2.76 1.44-4.32 1.98-1.5.54-3.39.81-5.67.81-2.46 0-4.23-.39-5.31-1.17-1.02-.78-1.53-2.4-1.53-4.86-2.04 1.8-4.14 3.27-6.3 4.41-2.16 1.08-4.56 1.62-7.2 1.62-3.24 0-5.91-.78-8.01-2.34s-3.15-3.78-3.15-6.66c0-4.08 2.16-7.65 6.48-10.71 4.38-3.12 10.44-5.37 18.18-6.75v-5.49c-.06-2.52-.72-4.41-1.98-5.67-1.2-1.26-3.33-1.89-6.39-1.89-1.68 0-3.15.27-4.41.81-1.2.48-1.8.99-1.8 1.53s.36 1.17 1.08 1.89c.48.54.84 1.02 1.08 1.44s.36.99.36 1.71c0 1.5-.45 2.7-1.35 3.6-.9.84-2.1 1.26-3.6 1.26-1.56 0-2.82-.48-3.78-1.44s-1.44-2.22-1.44-3.78c0-1.98.72-3.84 2.16-5.58 1.5-1.74 3.63-3.12 6.39-4.14 2.82-1.08 6.12-1.62 9.9-1.62 4.8 0 8.31.99 10.53 2.97 2.28 1.98 3.42 5.4 3.42 10.26v19.98c0 2.34.24 3.96.72 4.86.54.84 1.38 1.26 2.52 1.26.6 0 1.14-.09 1.62-.27l.9-.45zm-31.32-9.36c0 3.78 2.22 5.67 6.66 5.67 2.46 0 5.07-1.11 7.83-3.33v-13.14c-4.98 1.08-8.64 2.49-10.98 4.23-2.34 1.68-3.51 3.87-3.51 6.57zm76.835 3.78c0 1.26.12 2.22.36 2.88.3.6.87 1.02 1.71 1.26s2.13.36 3.87.36v2.97h-21.51v-2.97c1.62 0 2.76-.06 3.42-.18.66-.18 1.11-.54 1.35-1.08.3-.54.45-1.47.45-2.79v-21.6c0-2.82-.69-4.98-2.07-6.48-1.32-1.5-3.21-2.25-5.67-2.25-3.3 0-6.42 1.41-9.36 4.23v26.1c0 1.32.12 2.25.36 2.79.3.54.78.9 1.44 1.08.66.12 1.74.18 3.24.18v2.97h-21.33v-2.97c1.8 0 3.09-.12 3.87-.36s1.29-.66 1.53-1.26.36-1.56.36-2.88v-26.01c0-1.62-.18-2.7-.54-3.24-.36-.6-1.02-.9-1.98-.9h-2.7v-3.06l12.96-2.07h2.52v5.94h.09c2.52-2.16 5.13-3.75 7.83-4.77 2.7-1.08 5.28-1.62 7.74-1.62 3.78 0 6.72 1.17 8.82 3.51 2.16 2.28 3.24 5.52 3.24 9.72zm9.919 4.5c1.8 0 3.09-.12 3.87-.36s1.29-.66 1.53-1.26.36-1.56.36-2.88v-31.23h-5.76v-3.6h5.76v-5.49c0-4.8 1.38-8.58 4.14-11.34 2.76-2.82 6.48-4.23 11.16-4.23 3.66 0 6.48.81 8.46 2.43s2.97 3.63 2.97 6.03c0 1.44-.39 2.58-1.17 3.42s-1.95 1.26-3.51 1.26c-1.5 0-2.67-.39-3.51-1.17-.78-.78-1.17-1.86-1.17-3.24 0-.9.18-1.71.54-2.43.42-.72.63-1.23.63-1.53 0-.42-.3-.81-.9-1.17-.54-.42-1.23-.63-2.07-.63-3.36 0-5.04 2.7-5.04 8.1v9.99h10.17v3.6h-10.17v31.23c0 1.38.15 2.37.45 2.97s.93 1.02 1.89 1.26c.96.18 2.58.27 4.86.27v2.97h-23.49zm49.251 3.87c-7.2 0-12.51-1.77-15.93-5.31-3.36-3.54-5.04-9.09-5.04-16.65s1.71-13.14 5.13-16.74c3.42-3.66 8.76-5.49 16.02-5.49 7.14 0 12.39 1.8 15.75 5.4 3.36 3.54 5.04 9.09 5.04 16.65 0 7.62-1.71 13.23-5.13 16.83-3.36 3.54-8.64 5.31-15.84 5.31zm0-3.6c3.48 0 6-1.47 7.56-4.41s2.34-7.47 2.34-13.59c0-6.54-.81-11.34-2.43-14.4s-4.14-4.59-7.56-4.59-5.94 1.5-7.56 4.5c-1.56 2.94-2.34 7.62-2.34 14.04s.78 11.1 2.34 14.04c1.62 2.94 4.17 4.41 7.65 4.41zm53.52-40.59c2.58 0 4.47.75 5.67 2.25 1.26 1.44 1.89 3.21 1.89 5.31 0 1.98-.51 3.54-1.53 4.68-1.02 1.08-2.46 1.62-4.32 1.62-1.62 0-2.91-.42-3.87-1.26-.9-.84-1.35-2.01-1.35-3.51 0-.9.12-1.62.36-2.16.3-.54.66-1.05 1.08-1.53.48-.48.72-.81.72-.99 0-.24-.09-.45-.27-.63s-.48-.27-.9-.27c-1.08 0-2.28.69-3.6 2.07s-2.46 3.24-3.42 5.58c-.96 2.28-1.44 4.74-1.44 7.38v17.28c0 1.32.15 2.28.45 2.88.36.6 1.05 1.02 2.07 1.26s2.67.36 4.95.36v2.97h-23.76v-2.97c1.8 0 3.09-.12 3.87-.36.78-.3 1.29-.75 1.53-1.35s.36-1.53.36-2.79v-26.01c0-1.62-.18-2.7-.54-3.24-.36-.6-1.02-.9-1.98-.9h-2.7v-3.06l12.96-2.07h2.52v7.83h.18c2.64-5.58 6.33-8.37 11.07-8.37zm55.09 40.32v2.97h-15.21l-.54-3.87c-1.92 1.38-4.11 2.55-6.57 3.51-2.46.9-4.98 1.35-7.56 1.35-5.16 0-9.15-1.86-11.97-5.58s-4.23-8.94-4.23-15.66c0-7.68 1.83-13.41 5.49-17.19 3.72-3.84 8.97-5.76 15.75-5.76 1.74 0 3.21.12 4.41.36s2.61.6 4.23 1.08h.09v-11.07c0-1.62-.18-2.73-.54-3.33-.3-.6-.99-.9-2.07-.9h-2.7v-2.88l13.05-2.16h2.61v54.63c0 1.8.36 3 1.08 3.6s1.95.9 3.69.9zm-35.01-19.35c0 11.64 3.6 17.46 10.8 17.46 1.38 0 2.58-.24 3.6-.72 1.08-.48 2.58-1.41 4.5-2.79v-28.89c-2.16-1.56-4.71-2.34-7.65-2.34-3.72 0-6.54 1.41-8.46 4.23-1.86 2.76-2.79 7.11-2.79 13.05z" fill="#701111"/><path d="m230.39 582.84c-6.393 0-11.037-1.307-13.93-3.92-2.847-2.66-4.27-6.953-4.27-12.88v-23.94c0-1.213-.117-2.077-.35-2.59s-.723-.863-1.47-1.05c-.7-.233-1.913-.35-3.64-.35v-2.31h19.53v2.31c-1.727 0-2.963.117-3.71.35-.747.187-1.237.537-1.47 1.05s-.35 1.377-.35 2.59v24.08c0 4.527.84 7.957 2.52 10.29 1.727 2.333 4.223 3.5 7.49 3.5 6.58 0 9.87-4.597 9.87-13.79v-24.08c0-1.213-.117-2.077-.35-2.59s-.723-.863-1.47-1.05c-.7-.233-1.913-.35-3.64-.35v-2.31h19.53v2.31c-1.773 0-3.033.093-3.78.28s-1.237.56-1.47 1.12c-.187.513-.28 1.377-.28 2.59v23.94c0 5.833-1.517 10.103-4.55 12.81-2.987 2.66-7.723 3.99-14.21 3.99zm57.487-6.65c0 .98.093 1.727.28 2.24.233.467.677.793 1.33.98s1.657.28 3.01.28v2.31h-16.73v-2.31c1.26 0 2.147-.047 2.66-.14.513-.14.863-.42 1.05-.84.233-.42.35-1.143.35-2.17v-16.8c0-2.193-.537-3.873-1.61-5.04-1.027-1.167-2.497-1.75-4.41-1.75-2.567 0-4.993 1.097-7.28 3.29v20.3c0 1.027.093 1.75.28 2.17.233.42.607.7 1.12.84.513.093 1.353.14 2.52.14v2.31h-16.59v-2.31c1.4 0 2.403-.093 3.01-.28s1.003-.513 1.19-.98.28-1.213.28-2.24v-20.23c0-1.26-.14-2.1-.42-2.52-.28-.467-.793-.7-1.54-.7h-2.1v-2.38l10.08-1.61h1.96v4.62h.07c1.96-1.68 3.99-2.917 6.09-3.71 2.1-.84 4.107-1.26 6.02-1.26 2.94 0 5.227.91 6.86 2.73 1.68 1.773 2.52 4.293 2.52 7.56zm15.695-32.13c-1.354 0-2.45-.42-3.29-1.26-.84-.887-1.26-1.983-1.26-3.29s.42-2.403 1.26-3.29 1.936-1.33 3.29-1.33c1.4 0 2.52.443 3.36 1.33s1.26 1.983 1.26 3.29-.444 2.403-1.33 3.29c-.887.84-1.984 1.26-3.29 1.26zm-8.33 35.63c1.4 0 2.403-.093 3.01-.28.606-.233 1.003-.583 1.19-1.05.186-.467.28-1.19.28-2.17v-20.23c0-1.307-.14-2.17-.42-2.59-.234-.42-.747-.63-1.54-.63h-2.1v-2.38l10.29-1.61h1.96v27.44c0 1.027.093 1.773.28 2.24.186.467.583.793 1.19.98.606.187 1.61.28 3.01.28v2.31h-17.15zm22.448-25.69c-.42-1.027-.933-1.703-1.54-2.03-.56-.373-1.563-.56-3.01-.56v-2.31h16.1v2.31h-2.45c-.887 0-1.33.35-1.33 1.05 0 .187.047.467.14.84l7.98 20.93h.21l7.35-20.79c.093-.467.14-.77.14-.91 0-.747-.467-1.12-1.4-1.12h-2.73v-2.31h12.74v2.31c-1.447 0-2.473.21-3.08.63s-1.12 1.167-1.54 2.24l-11.41 27.72h-5.18zm61.54 11.97h-21c.14 4.013.91 7.07 2.31 9.17s3.756 3.15 7.07 3.15c2.286 0 4.176-.513 5.67-1.54 1.493-1.073 2.683-2.66 3.57-4.76l2.17 1.26c-1.167 2.847-2.8 5.133-4.9 6.86s-5.25 2.59-9.45 2.59c-10.034 0-15.05-5.67-15.05-17.01 0-5.74 1.26-10.057 3.78-12.95 2.566-2.893 6.3-4.34 11.2-4.34 5.133 0 8.843 1.493 11.13 4.48 2.333 2.987 3.5 7.047 3.5 12.18zm-8.54-2.8c0-4.153-.374-7.187-1.12-9.1-.747-1.913-2.31-2.87-4.69-2.87-2.287 0-3.967.957-5.04 2.87-1.027 1.913-1.587 4.947-1.68 9.1zm33.992-14.84c2.006 0 3.476.583 4.41 1.75.98 1.12 1.47 2.497 1.47 4.13 0 1.54-.397 2.753-1.19 3.64-.794.84-1.914 1.26-3.36 1.26-1.26 0-2.264-.327-3.01-.98-.7-.653-1.05-1.563-1.05-2.73 0-.7.093-1.26.28-1.68.233-.42.513-.817.84-1.19.373-.373.56-.63.56-.77 0-.187-.07-.35-.21-.49s-.374-.21-.7-.21c-.84 0-1.774.537-2.8 1.61-1.027 1.073-1.914 2.52-2.66 4.34-.747 1.773-1.12 3.687-1.12 5.74v13.44c0 1.027.116 1.773.35 2.24.28.467.816.793 1.61.98.793.187 2.076.28 3.85.28v2.31h-18.48v-2.31c1.4 0 2.403-.093 3.01-.28.606-.233 1.003-.583 1.19-1.05.186-.467.28-1.19.28-2.17v-20.23c0-1.26-.14-2.1-.42-2.52-.28-.467-.794-.7-1.54-.7h-2.1v-2.38l10.08-1.61h1.96v6.09h.14c2.053-4.34 4.923-6.51 8.61-6.51zm21.325 34.44c-1.26 0-2.31-.117-3.15-.35-.794-.187-1.75-.467-2.87-.84-1.074-.467-1.96-.7-2.66-.7-.56 0-1.004.117-1.33.35-.28.187-.56.513-.84.98h-1.33l-.63-11.55h1.75c.886 2.8 2.286 5.063 4.2 6.79 1.96 1.727 4.106 2.59 6.44 2.59 1.68 0 2.986-.443 3.92-1.33.933-.933 1.4-2.17 1.4-3.71 0-.98-.21-1.773-.63-2.38-.42-.653-1.05-1.237-1.89-1.75s-2.217-1.237-4.13-2.17l-1.4-.7c-3.22-1.587-5.46-3.057-6.72-4.41-1.214-1.4-1.82-3.197-1.82-5.39 0-3.127 1.026-5.53 3.08-7.21 2.053-1.727 4.853-2.59 8.4-2.59 1.913 0 3.733.303 5.46.91 1.026.28 1.726.42 2.1.42.513 0 .863-.093 1.05-.28.186-.187.303-.373.35-.56.093-.233.14-.373.14-.42h1.47l.56 10.29h-1.75c-.56-2.24-1.657-4.06-3.29-5.46-1.587-1.4-3.407-2.1-5.46-2.1-1.447 0-2.66.35-3.64 1.05-.934.7-1.4 1.633-1.4 2.8 0 2.1 1.586 3.873 4.76 5.32l2.17.98c2.24 1.027 4.036 1.983 5.39 2.87 1.353.887 2.426 1.983 3.22 3.29.793 1.26 1.19 2.823 1.19 4.69 0 3.173-1.12 5.74-3.36 7.7-2.194 1.913-5.11 2.87-8.75 2.87zm23.895-38.71c-1.354 0-2.45-.42-3.29-1.26-.84-.887-1.26-1.983-1.26-3.29s.42-2.403 1.26-3.29 1.936-1.33 3.29-1.33c1.4 0 2.52.443 3.36 1.33s1.26 1.983 1.26 3.29-.444 2.403-1.33 3.29c-.887.84-1.984 1.26-3.29 1.26zm-8.33 35.63c1.4 0 2.403-.093 3.01-.28.606-.233 1.003-.583 1.19-1.05.186-.467.28-1.19.28-2.17v-20.23c0-1.307-.14-2.17-.42-2.59-.234-.42-.747-.63-1.54-.63h-2.1v-2.38l10.29-1.61h1.96v27.44c0 1.027.093 1.773.28 2.24.186.467.583.793 1.19.98.606.187 1.61.28 3.01.28v2.31h-17.15zm30.848 3.08c-2.567 0-4.573-.7-6.02-2.1-1.447-1.447-2.17-3.477-2.17-6.09v-22.68h-4.13v-2.31c2.427-.747 4.363-2.03 5.81-3.85 1.447-1.867 2.59-4.41 3.43-7.63h2.94v10.99h7.49v2.8h-7.49v20.23c0 2.1.397 3.663 1.19 4.69s2.03 1.54 3.71 1.54c1.26 0 2.427-.233 3.5-.7l.77 1.75c-1.727 1.12-3.22 1.96-4.48 2.52-1.213.56-2.73.84-4.55.84zm43.288-33.67v2.31c-1.12 0-1.96.093-2.52.28-.56.14-1.026.467-1.4.98-.373.513-.793 1.377-1.26 2.59l-10.22 25.9-1.12 2.87c-1.12 2.987-2.1 5.297-2.94 6.93-.84 1.68-1.936 3.057-3.29 4.13-1.306 1.073-2.94 1.61-4.9 1.61s-3.57-.513-4.83-1.54-1.89-2.31-1.89-3.85c0-1.26.42-2.357 1.26-3.29s1.867-1.4 3.08-1.4c1.027 0 1.867.35 2.52 1.05.7.7 1.05 1.587 1.05 2.66 0 .793-.186 1.447-.56 1.96-.373.56-.56.933-.56 1.12 0 .373.42.56 1.26.56 1.307 0 2.38-.49 3.22-1.47s1.68-2.683 2.52-5.11l1.54-4.27-11.9-28.84c-.373-.933-.723-1.587-1.05-1.96-.28-.373-.7-.607-1.26-.7-.513-.14-1.353-.21-2.52-.21v-2.31h16.73v2.31h-2.31c-.886 0-1.33.373-1.33 1.12 0 .28.07.63.21 1.05l6.93 19.18h.14l6.79-19.25.14-.84c0-.84-.466-1.26-1.4-1.26h-2.73v-2.31z" fill="#701111"/><path d="m271.503 326.34c-.046.104-.071.16-.071.16v-119.9h23.407v-51.6h-121.839v51.6h23.408v129.9h-23.408v51.5-20s3.5-14 14.5-23.5c0 0-3.5 9.651 3.014 26.514.083.424.175 1.086.272 1.783.198 1.417.415 2.979.62 2.979 0 0 .229-2.351.41-4.762 1.109-14.462 19.545-68.878 28.684-80.014-1.5 8.774-22.676 61.247-12.639 80.014 2.927 5.727 1.86 0 1.86 0 .217-14.96 7.279-70.514 26.779-94.271-1.5 10.257-19.095 59.027-5.384 94.272.236.507.448 1.098.673 1.724.354.989 1.374 2.3 1.304 3.038 0 0 .205-2.326.545-4.762 1.813-12.95 7.551-57.015 7.551-77.14 2.311 4.125 10.642 49.596 8.489 77.14h.234c1.982-12.328 4.552-52.855 6.68-86.428.997-15.727 2.595-30.087 2.595-38.987 2.313 3.4 7.709 26.736 6.711 108.551.602-7.939 2.732-18.405 5.605-27.811zm0 0c2.906-9.509 6.57-17.933 10.183-21.566 0 0-3.513 16.199-5.186 31.726m248 51.5v-43.5m0 0v-58.1h-6.083m6.083 58.1c-1.156-31.964-3.604-48.989-6.083-58.1m0 0c-2.132-7.835-3.917-9.657-3.917-9.657.275 3.204.469 6.429.593 9.657m0 0c1.676 43.772-9.688 88.146-10.977 88.772.041-.264.404-4.152.404-4.152 4.776-33.392-6.02-52.52-6.02-52.52 1 31-7.484 45.656-15.985 52.52-3.186 2.568-5.556 4.761-5.556 4.761-.166 0-.319-1.58-.457-3.006-.067-.685-.13-1.335-.189-1.755.487-30.536 7.729-59.073 11.696-74.706 1.121-4.417 3.491-9.914 3.491-9.914m23.593 0h-23.593m0 0c0-.9 1.467-5.132 1.5-5.4-.268.223-3.699 5.025-4 5.4m0 0h-5.113l-14.887 49.135-1.938.065m21.938-49.2c-6.434 8.026-16 52.6-21.938 75.6 0-11.5-.026-20.201 0-26.4m0 0c.087-20.442-5.062-25.379-5.062-25.379 1.042 9.75.993 18.141.306 25.379m0 0h-15.191m15.191 0c-1.423 14.999-5.587 25.046-8.459 31.974-.516 1.246-.991 2.391-1.4 3.446-.95 2.456-1.584 4.761-1.584 4.761-.289 0-.559-1.458-.816-2.853-.134-.725-.264-1.431-.393-1.908-3.107-11.607-3.243-24.804-2.539-35.42m0 0c.768-11.592 2.539-20.105 2.539-20.105-1.827 1.912-5.28 10.495-8.542 20.105m0 0h-18.145l99.032-132.6v-48h-204.366v97.2h42.314l11.703-45.6h46.215l-83.995 108.895m107.242 20.105c-2.37 6.98-4.639 14.501-6.112 20.4-6-13.5-13.5-15.479-13.5-15.479 3 20.771-4.833 28.097-4.833 28.097 3.595-40.483-4.167-47.618-9-50.605 8.333 16.487-11.698 49.834-11.698 49.834-1.936-28.913 2.917-51.09 7.498-72.032 2.446-11.178 4.815-22.004 6.033-33.315-9.585 10.052-18.904 52.64-22.803 70.46-.86 3.929-1.456 6.654-1.734 7.561-.272-.933-.614-2.679-1.067-4.986-1.982-10.102-6.078-30.975-15.629-41.66 7.233 35.625 1.733 70.125-.189 76.302-2.078-8.677-8.578-56.177-9.902-59.956-3.176 17.779-15.178 49.839-21.232 60.794-1.332 2.401-2.165 4.762-2.165 4.762-.231 0-.438-1.52-.631-2.931-.096-.705-.188-1.383-.278-1.831-3.308-16.447-2.67-34.742 0-55.52m0 0c2.211-17.213 6.306-38.752 6.306-38.752-3.583 2.412-8.817 15.652-11.676 23.757-8.441 23.928-11.639 57.863-13.099 70.52-.281 2.442-.422 4.762-.422 4.762-.05 0-.105-1.295-.159-2.597-.035-.83-.071-1.663-.105-2.165-.844-11.907-1.264-24.404-1.471-34.52-.251-12.246-.189-21.005-.189-21.005-2.146 2.039-4.396 11.093-6.055 21.005-2.628 15.7-4.178 34.538-4.552 38.539-.044.48-.068.738-.07.738l.158-4.762c.749-13.158.832-24.606.478-34.515m0 0c-1.473-41.315-10.533-55.858-10.533-55.858.762 14.838-1.399 38.551-3.481 55.858m14.014 0h-.014m-14 0h-12.5m12.5 0c-2.068 17.192-4.047 28.006-6.071 34.515-.762 2.462-1.243 4.762-1.243 4.762-.617 0-1.172-1.6-1.677-3.056-.225-.649-.44-1.269-.646-1.706-4.354-9.236-4.291-21.257-2.863-34.515" stroke="#701111" stroke-width="8"/><path d="m172.5 388v-51.578h23.408v-129.844h-23.408v-51.578h121.839v51.578h-23.407v129.844l47.101.3v51.278z" fill="#701111"/><path d="m318.033 388v-51.278l99.332-130.144h-46.215l-11.703 45.58h-42.314v-97.158h204.366v47.979l-99.032 132.544h45.015l15.905-49.179h41.113v101.656z" fill="#701111"/><path d="m318.033 336.722-47.101-.3v-129.844h23.407v-51.578h-121.839v51.578h23.408v129.844h-23.408v51.578h145.533m0-51.278v51.278m0-51.278 99.332-130.144h-46.215l-11.703 45.58h-42.314v-97.158h204.366v47.979l-99.032 132.544h45.015l15.905-49.179h41.113v101.656h-206.467" stroke="#701111" stroke-width="8"/><path d="m514.5 276.743c4 46.646-9 97.757-10.384 98.429.041-.264.404-4.152.404-4.152 4.776-33.392-6.02-52.52-6.02-52.52 1 31-7.484 45.656-15.985 52.52-3.186 2.568-6.202 4.761-6.202 4.761-.246 0 .182-3.467 0-4.761.646-40.52 13.187-77.52 14.187-85.52-6 5-16.5 48-23 72 2.5-35.5-5.5-47.279-5.5-47.279 3.59 33.59-5.769 51.047-9.553 60.799-.95 2.456-1.584 4.761-1.584 4.761-.44 0-.832-3.365-1.209-4.761-6.5-24.28 0-55.525 0-55.525-3.154 3.3-11.154 26.485-14.654 40.505-6-13.5-13.5-15.479-13.5-15.479 3 20.771-4.833 28.097-4.833 28.097 3.596-40.483-5.167-47.118-9-50.605 8.833 16.487-11.698 49.834-11.698 49.834-2.969-44.347 10.031-72.847 13.531-105.347-11.698 12.268-23 73-24.537 78.021-1.463-5.021-4.963-33.521-16.696-46.646 7.233 35.625 1.733 70.125-.189 76.302-2.078-8.677-9.902-59.956-9.902-59.956-3.176 17.779-15.178 49.839-21.232 60.794-1.332 2.401-2.165 4.762-2.165 4.762-.346 0-.639-3.417-.909-4.762-6.049-30.072 6.306-94.272 6.306-94.272-14.162 9.533-22.821 77.332-24.775 94.277-.281 2.442-.422 4.762-.422 4.762-.082 0-.176-3.472-.264-4.762-1.865-26.32-1.66-55.525-1.66-55.525-5.955 5.656-10.648 60.282-10.677 60.282l.158-4.762c3.872-68.017-10.055-90.373-10.055-90.373 1.519 29.579-5.492 77.312-9.552 90.373-.762 2.462-1.243 4.762-1.243 4.762-.892 0-1.655-3.346-2.323-4.762-9.452-20.051 2.323-66.241 2.323-66.241-7.186 7.226-14.579 33.412-15.788 49.377.998-81.815-6.711-108.551-6.711-108.551-2.187 28.4-6.365 107.313-9.275 125.415-.152.954-.17 1.066 0 0h-.234c2.153-27.544-8.489-77.14-8.489-77.14 0 21.62-5.738 64.19-7.551 77.14-.34 2.436-.545 4.762-.545 4.762-.921-1.589-1.367-3.452-1.977-4.762-13.711-35.245 5.384-94.272 5.384-94.272-20.896 24.112-26.562 79.311-26.779 94.271-.023 1.468-.018 1.153 0 0 0 0 1.067 5.727-1.86 0-10.037-18.767 10.139-74.514 10.139-74.514-10 15-25.075 60.052-26.184 74.514-.181 2.411-.41 4.762-.41 4.762-.306 0-.639-3.477-.892-4.762-6.514-16.863-2.514-27.014-2.514-27.014-11 9.5-14.5 23.847-14.5 23.847v21.153h352c.053-87.15-11-112.257-11-112.257z" fill="#fff"/><path d="m172.5 389v-52.5h23.408v-129.9h-23.408v-51.6h121.839v51.6h-23.407v119.9s.025-.056.071-.16m0 0c-2.873 9.406-5.003 19.872-5.605 27.811.998-81.815-4.398-105.151-6.711-108.551 0 8.9-1.598 23.26-2.595 38.987-2.128 33.573-4.698 74.1-6.68 86.428h-.234c2.153-27.544-6.178-73.015-8.489-77.14 0 20.125-5.738 64.19-7.551 77.14-.34 2.436-.545 4.762-.545 4.762-.564-.974-.95-2.049-1.304-3.038-.225-.626-.437-1.217-.673-1.724-13.711-35.245 3.884-84.015 5.384-94.272-19.5 23.757-26.562 79.311-26.779 94.271 0 0 1.067 5.727-1.86 0-10.037-18.767 11.139-71.24 12.639-80.014-9.139 11.136-27.575 65.552-28.684 80.014-.181 2.411-.41 4.762-.41 4.762-.205 0-.422-1.562-.62-2.979-.097-.697-.189-1.359-.272-1.783-6.514-16.863-3.014-26.514-3.014-26.514-11 9.5-14.5 24-14.5 24m98.503-42.16c2.906-9.509 6.57-17.933 10.183-21.566 0 0-3.513 16.199-5.186 31.726m248.5 52.5v-24.642-19.641m0 0v-58.317h-6.583m6.583 58.317c-1.156-31.964-4.104-49.206-6.583-58.317m0 0c-2.132-7.835-3.917-9.657-3.917-9.657.275 3.204.469 6.429.593 9.657m0 0c1.676 43.772-9.688 88.146-10.977 88.772.041-.264.404-4.152.404-4.152 4.776-33.392-6.02-52.52-6.02-52.52 1 31-7.484 45.656-15.985 52.52-3.186 2.568-5.556 4.761-5.556 4.761-.166 0-.319-1.58-.457-3.006-.067-.685-.13-1.335-.189-1.755.487-30.536 7.729-59.073 11.696-74.706 1.121-4.417 3.491-9.914 3.491-9.914m23.593 0h-23.593m0 0c0-.9 1.467-5.132 1.5-5.4-.268.223-3.699 5.025-4 5.4m0 0h-5.113l-14.887 49.135-1.938.065m21.938-49.2c-6.434 8.026-16 52.6-21.938 75.6 0-11.5-.026-20.201 0-26.4m0 0c.087-20.442-5.062-25.379-5.062-25.379 1.042 9.75.993 18.141.306 25.379m0 0h-15.191m15.191 0c-1.423 14.999-5.587 25.046-8.459 31.974-.516 1.246-.991 2.391-1.4 3.446-.95 2.456-1.584 4.761-1.584 4.761-.289 0-.559-1.458-.816-2.853-.134-.725-.264-1.431-.393-1.908-3.107-11.607-3.243-24.804-2.539-35.42m0 0c.768-11.592 2.539-20.105 2.539-20.105-1.827 1.912-5.28 10.495-8.542 20.105m0 0h-18.145l99.032-132.6v-48h-204.366v97.2h42.314l11.703-45.6h46.215l-83.995 108.895m107.242 20.105c-2.37 6.98-4.639 14.501-6.112 20.4-6-13.5-13.5-15.479-13.5-15.479 3 20.771-4.833 28.097-4.833 28.097 3.595-40.483-4.167-47.618-9-50.605 8.333 16.487-11.698 49.834-11.698 49.834-1.936-28.913 2.917-51.09 7.498-72.032 2.446-11.178 4.815-22.004 6.033-33.315-9.585 10.052-18.904 52.64-22.803 70.46-.86 3.929-1.456 6.654-1.734 7.561-.272-.933-.614-2.679-1.067-4.986-1.982-10.102-6.078-30.975-15.629-41.66 7.233 35.625 1.733 70.125-.189 76.302-2.078-8.677-8.578-56.177-9.902-59.956-3.176 17.779-15.178 49.839-21.232 60.794-1.332 2.401-2.165 4.762-2.165 4.762-.231 0-.438-1.52-.631-2.931-.096-.705-.188-1.383-.278-1.831-3.308-16.447-2.67-34.742 0-55.52m0 0c2.211-17.213 6.306-38.752 6.306-38.752-3.583 2.412-8.817 15.652-11.676 23.757-8.441 23.928-11.639 57.863-13.099 70.52-.281 2.442-.422 4.762-.422 4.762-.05 0-.105-1.295-.159-2.597-.035-.83-.071-1.663-.105-2.165-.844-11.907-1.264-24.404-1.471-34.52-.251-12.246-.189-21.005-.189-21.005-2.146 2.039-4.396 11.093-6.055 21.005-2.628 15.7-4.178 34.538-4.552 38.539-.044.48-.068.738-.07.738l.158-4.762c.749-13.158.832-24.606.478-34.515m0 0c-1.473-41.315-10.533-55.858-10.533-55.858.762 14.838-1.399 38.551-3.481 55.858m14.014 0h-.014m-14 0h-12.5m12.5 0c-2.068 17.192-4.047 28.006-6.071 34.515-.762 2.462-1.243 4.762-1.243 4.762-.617 0-1.172-1.6-1.677-3.056-.225-.649-.44-1.269-.646-1.706-4.354-9.236-4.291-21.257-2.863-34.515" stroke="#fff" stroke-width="2"/></svg>