<svg width="700" height="700" viewBox="0 0 700 700" fill="none" xmlns="http://www.w3.org/2000/svg">
<rect width="700" height="700" fill="white"/>
<path d="M116.96 500.03C119.18 500.03 120.77 499.91 121.73 499.67C122.69 499.37 123.32 498.89 123.62 498.23C123.92 497.57 124.07 496.49 124.07 494.99V451.79C124.07 450.23 123.92 449.12 123.62 448.46C123.32 447.74 122.69 447.26 121.73 447.02C120.77 446.72 119.18 446.57 116.96 446.57V443.6H142.07V446.57C139.85 446.57 138.26 446.72 137.3 447.02C136.34 447.26 135.71 447.74 135.41 448.46C135.17 449.12 135.05 450.23 135.05 451.79V494.99C135.05 496.49 135.2 497.6 135.5 498.32C135.8 498.98 136.43 499.43 137.39 499.67C138.35 499.91 139.91 500.03 142.07 500.03V503H116.96V500.03ZM146.857 499.94L171.607 464.21H164.407C161.527 464.21 159.277 464.54 157.657 465.2C156.097 465.86 154.897 466.91 154.057 468.35C153.277 469.73 152.587 471.71 151.987 474.29H149.647L150.637 460.7H183.577V463.85L158.827 499.49H168.817C171.937 499.49 174.367 499.16 176.107 498.5C177.847 497.84 179.167 496.76 180.067 495.26C181.027 493.7 181.867 491.48 182.587 488.6H184.927L183.937 503H146.857V499.94ZM234.388 500.03V503H215.218V500.03H216.028C216.568 500.03 216.988 499.94 217.288 499.76C217.648 499.58 217.828 499.34 217.828 499.04C217.828 498.74 217.648 498.32 217.288 497.78C216.928 497.24 216.508 496.64 216.028 495.98L206.848 483.29L203.878 486.8V495.53C203.878 496.79 203.998 497.75 204.238 498.41C204.538 499.01 205.078 499.43 205.858 499.67C206.698 499.91 207.958 500.03 209.638 500.03V503H187.588V500.03C189.388 500.03 190.678 499.91 191.458 499.67C192.298 499.37 192.838 498.92 193.078 498.32C193.318 497.72 193.438 496.79 193.438 495.53V450.26C193.438 448.58 193.258 447.47 192.898 446.93C192.538 446.33 191.848 446.03 190.828 446.03H188.128V442.97L201.358 440.9H203.878V482.39L213.058 470.24C214.858 467.84 215.758 466.1 215.758 465.02C215.758 464.12 215.218 463.67 214.138 463.67H212.068V460.7H232.138V463.67H230.878C228.298 463.67 225.928 464.27 223.768 465.47C221.608 466.67 219.418 468.56 217.198 471.14L213.058 476L225.208 492.65C227.248 495.47 228.838 497.42 229.978 498.5C231.178 499.52 232.348 500.03 233.488 500.03H234.388ZM278.03 495.53C278.03 496.79 278.15 497.75 278.39 498.41C278.69 499.01 279.23 499.43 280.01 499.67C280.85 499.91 282.11 500.03 283.79 500.03V503H267.86V496.79H267.77C262.19 501.59 256.94 503.99 252.02 503.99C248.18 503.99 245.24 502.91 243.2 500.75C241.22 498.59 240.23 495.44 240.23 491.3V468.98C240.23 467.3 240.05 466.19 239.69 465.65C239.33 465.11 238.61 464.84 237.53 464.84H234.83V461.87L247.97 460.25H250.58V488.69C250.58 491.69 251.24 494.03 252.56 495.71C253.94 497.33 255.89 498.14 258.41 498.14C259.97 498.14 261.56 497.66 263.18 496.7C264.86 495.68 266.33 494.51 267.59 493.19V468.98C267.59 467.3 267.41 466.19 267.05 465.65C266.75 465.11 266.06 464.84 264.98 464.84H262.28V461.87L275.42 460.25H278.03V495.53ZM305.709 503.99C304.089 503.99 302.739 503.84 301.659 503.54C300.639 503.3 299.409 502.94 297.969 502.46C296.589 501.86 295.449 501.56 294.549 501.56C293.829 501.56 293.259 501.71 292.839 502.01C292.479 502.25 292.119 502.67 291.759 503.27H290.049L289.239 488.42H291.489C292.629 492.02 294.429 494.93 296.889 497.15C299.409 499.37 302.169 500.48 305.169 500.48C307.329 500.48 309.009 499.91 310.209 498.77C311.409 497.57 312.009 495.98 312.009 494C312.009 492.74 311.739 491.72 311.199 490.94C310.659 490.1 309.849 489.35 308.769 488.69C307.689 488.03 305.919 487.1 303.459 485.9L301.659 485C297.519 482.96 294.639 481.07 293.019 479.33C291.459 477.53 290.679 475.22 290.679 472.4C290.679 468.38 291.999 465.29 294.639 463.13C297.279 460.91 300.879 459.8 305.439 459.8C307.899 459.8 310.239 460.19 312.459 460.97C313.779 461.33 314.679 461.51 315.159 461.51C315.819 461.51 316.269 461.39 316.509 461.15C316.749 460.91 316.899 460.67 316.959 460.43C317.079 460.13 317.139 459.95 317.139 459.89H319.029L319.749 473.12H317.499C316.779 470.24 315.369 467.9 313.269 466.1C311.229 464.3 308.889 463.4 306.249 463.4C304.389 463.4 302.829 463.85 301.569 464.75C300.369 465.65 299.769 466.85 299.769 468.35C299.769 471.05 301.809 473.33 305.889 475.19L308.679 476.45C311.559 477.77 313.869 479 315.609 480.14C317.349 481.28 318.729 482.69 319.749 484.37C320.769 485.99 321.279 488 321.279 490.4C321.279 494.48 319.839 497.78 316.959 500.3C314.139 502.76 310.389 503.99 305.709 503.99ZM339.761 503.99C336.461 503.99 333.881 503.09 332.021 501.29C330.161 499.43 329.231 496.82 329.231 493.46V464.3H323.921V461.33C327.041 460.37 329.531 458.72 331.391 456.38C333.251 453.98 334.721 450.71 335.801 446.57H339.581V460.7H349.211V464.3H339.581V490.31C339.581 493.01 340.091 495.02 341.111 496.34C342.131 497.66 343.721 498.32 345.881 498.32C347.501 498.32 349.001 498.02 350.381 497.42L351.371 499.67C349.151 501.11 347.231 502.19 345.611 502.91C344.051 503.63 342.101 503.99 339.761 503.99ZM395.328 501.11C394.008 501.89 392.568 502.55 391.008 503.09C389.508 503.63 387.618 503.9 385.338 503.9C382.878 503.9 381.108 503.51 380.028 502.73C379.008 501.95 378.498 500.33 378.498 497.87C376.458 499.67 374.358 501.14 372.198 502.28C370.038 503.36 367.638 503.9 364.998 503.9C361.758 503.9 359.088 503.12 356.988 501.56C354.888 500 353.838 497.78 353.838 494.9C353.838 490.82 355.998 487.25 360.318 484.19C364.698 481.07 370.758 478.82 378.498 477.44V471.95C378.438 469.43 377.778 467.54 376.518 466.28C375.318 465.02 373.188 464.39 370.128 464.39C368.448 464.39 366.978 464.66 365.718 465.2C364.518 465.68 363.918 466.19 363.918 466.73C363.918 467.27 364.278 467.9 364.998 468.62C365.478 469.16 365.838 469.64 366.078 470.06C366.318 470.48 366.438 471.05 366.438 471.77C366.438 473.27 365.988 474.47 365.088 475.37C364.188 476.21 362.988 476.63 361.488 476.63C359.928 476.63 358.668 476.15 357.708 475.19C356.748 474.23 356.268 472.97 356.268 471.41C356.268 469.43 356.988 467.57 358.428 465.83C359.928 464.09 362.058 462.71 364.818 461.69C367.638 460.61 370.938 460.07 374.718 460.07C379.518 460.07 383.028 461.06 385.248 463.04C387.528 465.02 388.668 468.44 388.668 473.3V493.28C388.668 495.62 388.908 497.24 389.388 498.14C389.928 498.98 390.768 499.4 391.908 499.4C392.508 499.4 393.048 499.31 393.528 499.13C394.008 498.89 394.308 498.74 394.428 498.68L395.328 501.11ZM364.008 491.75C364.008 495.53 366.228 497.42 370.668 497.42C373.128 497.42 375.738 496.31 378.498 494.09V480.95C373.518 482.03 369.858 483.44 367.518 485.18C365.178 486.86 364.008 489.05 364.008 491.75ZM440.843 495.53C440.843 496.79 440.963 497.75 441.203 498.41C441.503 499.01 442.073 499.43 442.913 499.67C443.753 499.91 445.043 500.03 446.783 500.03V503H425.273V500.03C426.893 500.03 428.033 499.97 428.693 499.85C429.353 499.67 429.803 499.31 430.043 498.77C430.343 498.23 430.493 497.3 430.493 495.98V474.38C430.493 471.56 429.803 469.4 428.423 467.9C427.103 466.4 425.213 465.65 422.753 465.65C419.453 465.65 416.333 467.06 413.393 469.88V495.98C413.393 497.3 413.513 498.23 413.753 498.77C414.053 499.31 414.533 499.67 415.193 499.85C415.853 499.97 416.933 500.03 418.433 500.03V503H397.103V500.03C398.903 500.03 400.193 499.91 400.973 499.67C401.753 499.43 402.263 499.01 402.503 498.41C402.743 497.81 402.863 496.85 402.863 495.53V469.52C402.863 467.9 402.683 466.82 402.323 466.28C401.963 465.68 401.303 465.38 400.343 465.38H397.643V462.32L410.603 460.25H413.123V466.19H413.213C415.733 464.03 418.343 462.44 421.043 461.42C423.743 460.34 426.323 459.8 428.783 459.8C432.563 459.8 435.503 460.97 437.603 463.31C439.763 465.59 440.843 468.83 440.843 473.03V495.53ZM450.762 500.03C452.562 500.03 453.852 499.91 454.632 499.67C455.412 499.43 455.922 499.01 456.162 498.41C456.402 497.81 456.522 496.85 456.522 495.53V464.3H450.762V460.7H456.522V455.21C456.522 450.41 457.902 446.63 460.662 443.87C463.422 441.05 467.142 439.64 471.822 439.64C475.482 439.64 478.302 440.45 480.282 442.07C482.262 443.69 483.252 445.7 483.252 448.1C483.252 449.54 482.862 450.68 482.082 451.52C481.302 452.36 480.132 452.78 478.572 452.78C477.072 452.78 475.902 452.39 475.062 451.61C474.282 450.83 473.892 449.75 473.892 448.37C473.892 447.47 474.072 446.66 474.432 445.94C474.852 445.22 475.062 444.71 475.062 444.41C475.062 443.99 474.762 443.6 474.162 443.24C473.622 442.82 472.932 442.61 472.092 442.61C468.732 442.61 467.052 445.31 467.052 450.71V460.7H477.222V464.3H467.052V495.53C467.052 496.91 467.202 497.9 467.502 498.5C467.802 499.1 468.432 499.52 469.392 499.76C470.352 499.94 471.972 500.03 474.252 500.03V503H450.762V500.03ZM500.013 503.9C492.813 503.9 487.503 502.13 484.083 498.59C480.723 495.05 479.043 489.5 479.043 481.94C479.043 474.38 480.753 468.8 484.173 465.2C487.593 461.54 492.933 459.71 500.193 459.71C507.333 459.71 512.583 461.51 515.943 465.11C519.303 468.65 520.983 474.2 520.983 481.76C520.983 489.38 519.273 494.99 515.853 498.59C512.493 502.13 507.213 503.9 500.013 503.9ZM500.013 500.3C503.493 500.3 506.013 498.83 507.573 495.89C509.133 492.95 509.913 488.42 509.913 482.3C509.913 475.76 509.103 470.96 507.483 467.9C505.863 464.84 503.343 463.31 499.923 463.31C496.503 463.31 493.983 464.81 492.363 467.81C490.803 470.75 490.023 475.43 490.023 481.85C490.023 488.27 490.803 492.95 492.363 495.89C493.983 498.83 496.533 500.3 500.013 500.3ZM553.533 459.71C556.113 459.71 558.003 460.46 559.203 461.96C560.463 463.4 561.093 465.17 561.093 467.27C561.093 469.25 560.583 470.81 559.563 471.95C558.543 473.03 557.103 473.57 555.243 473.57C553.623 473.57 552.333 473.15 551.373 472.31C550.473 471.47 550.023 470.3 550.023 468.8C550.023 467.9 550.143 467.18 550.383 466.64C550.683 466.1 551.043 465.59 551.463 465.11C551.943 464.63 552.183 464.3 552.183 464.12C552.183 463.88 552.093 463.67 551.913 463.49C551.733 463.31 551.433 463.22 551.013 463.22C549.933 463.22 548.733 463.91 547.413 465.29C546.093 466.67 544.953 468.53 543.993 470.87C543.033 473.15 542.553 475.61 542.553 478.25V495.53C542.553 496.85 542.703 497.81 543.003 498.41C543.363 499.01 544.053 499.43 545.073 499.67C546.093 499.91 547.743 500.03 550.023 500.03V503H526.263V500.03C528.063 500.03 529.353 499.91 530.133 499.67C530.913 499.37 531.423 498.92 531.663 498.32C531.903 497.72 532.023 496.79 532.023 495.53V469.52C532.023 467.9 531.843 466.82 531.483 466.28C531.123 465.68 530.463 465.38 529.503 465.38H526.803V462.32L539.763 460.25H542.283V468.08H542.463C545.103 462.5 548.793 459.71 553.533 459.71ZM608.623 500.03V503H593.413L592.873 499.13C590.953 500.51 588.763 501.68 586.303 502.64C583.843 503.54 581.323 503.99 578.743 503.99C573.583 503.99 569.593 502.13 566.773 498.41C563.953 494.69 562.543 489.47 562.543 482.75C562.543 475.07 564.373 469.34 568.033 465.56C571.753 461.72 577.003 459.8 583.783 459.8C585.523 459.8 586.993 459.92 588.193 460.16C589.393 460.4 590.803 460.76 592.423 461.24H592.513V450.17C592.513 448.55 592.333 447.44 591.973 446.84C591.673 446.24 590.983 445.94 589.903 445.94H587.203V443.06L600.253 440.9H602.863V495.53C602.863 497.33 603.223 498.53 603.943 499.13C604.663 499.73 605.893 500.03 607.633 500.03H608.623ZM573.613 480.68C573.613 492.32 577.213 498.14 584.413 498.14C585.793 498.14 586.993 497.9 588.013 497.42C589.093 496.94 590.593 496.01 592.513 494.63V465.74C590.353 464.18 587.803 463.4 584.863 463.4C581.143 463.4 578.323 464.81 576.403 467.63C574.543 470.39 573.613 474.74 573.613 480.68Z" fill="#701111"/>
<path d="M230.39 582.84C223.997 582.84 219.353 581.533 216.46 578.92C213.613 576.26 212.19 571.967 212.19 566.04V542.1C212.19 540.887 212.073 540.023 211.84 539.51C211.607 538.997 211.117 538.647 210.37 538.46C209.67 538.227 208.457 538.11 206.73 538.11V535.8H226.26V538.11C224.533 538.11 223.297 538.227 222.55 538.46C221.803 538.647 221.313 538.997 221.08 539.51C220.847 540.023 220.73 540.887 220.73 542.1V566.18C220.73 570.707 221.57 574.137 223.25 576.47C224.977 578.803 227.473 579.97 230.74 579.97C237.32 579.97 240.61 575.373 240.61 566.18V542.1C240.61 540.887 240.493 540.023 240.26 539.51C240.027 538.997 239.537 538.647 238.79 538.46C238.09 538.227 236.877 538.11 235.15 538.11V535.8H254.68V538.11C252.907 538.11 251.647 538.203 250.9 538.39C250.153 538.577 249.663 538.95 249.43 539.51C249.243 540.023 249.15 540.887 249.15 542.1V566.04C249.15 571.873 247.633 576.143 244.6 578.85C241.613 581.51 236.877 582.84 230.39 582.84ZM287.877 576.19C287.877 577.17 287.97 577.917 288.157 578.43C288.39 578.897 288.834 579.223 289.487 579.41C290.14 579.597 291.144 579.69 292.497 579.69V582H275.767V579.69C277.027 579.69 277.914 579.643 278.427 579.55C278.94 579.41 279.29 579.13 279.477 578.71C279.71 578.29 279.827 577.567 279.827 576.54V559.74C279.827 557.547 279.29 555.867 278.217 554.7C277.19 553.533 275.72 552.95 273.807 552.95C271.24 552.95 268.814 554.047 266.527 556.24V576.54C266.527 577.567 266.62 578.29 266.807 578.71C267.04 579.13 267.414 579.41 267.927 579.55C268.44 579.643 269.28 579.69 270.447 579.69V582H253.857V579.69C255.257 579.69 256.26 579.597 256.867 579.41C257.474 579.223 257.87 578.897 258.057 578.43C258.244 577.963 258.337 577.217 258.337 576.19V555.96C258.337 554.7 258.197 553.86 257.917 553.44C257.637 552.973 257.124 552.74 256.377 552.74H254.277V550.36L264.357 548.75H266.317V553.37H266.387C268.347 551.69 270.377 550.453 272.477 549.66C274.577 548.82 276.584 548.4 278.497 548.4C281.437 548.4 283.724 549.31 285.357 551.13C287.037 552.903 287.877 555.423 287.877 558.69V576.19ZM303.572 544.06C302.218 544.06 301.122 543.64 300.282 542.8C299.442 541.913 299.022 540.817 299.022 539.51C299.022 538.203 299.442 537.107 300.282 536.22C301.122 535.333 302.218 534.89 303.572 534.89C304.972 534.89 306.092 535.333 306.932 536.22C307.772 537.107 308.192 538.203 308.192 539.51C308.192 540.817 307.748 541.913 306.862 542.8C305.975 543.64 304.878 544.06 303.572 544.06ZM295.242 579.69C296.642 579.69 297.645 579.597 298.252 579.41C298.858 579.177 299.255 578.827 299.442 578.36C299.628 577.893 299.722 577.17 299.722 576.19V555.96C299.722 554.653 299.582 553.79 299.302 553.37C299.068 552.95 298.555 552.74 297.762 552.74H295.662V550.36L305.952 548.75H307.912V576.19C307.912 577.217 308.005 577.963 308.192 578.43C308.378 578.897 308.775 579.223 309.382 579.41C309.988 579.597 310.992 579.69 312.392 579.69V582H295.242V579.69ZM317.69 554C317.27 552.973 316.757 552.297 316.15 551.97C315.59 551.597 314.587 551.41 313.14 551.41V549.1H329.24V551.41H326.79C325.903 551.41 325.46 551.76 325.46 552.46C325.46 552.647 325.507 552.927 325.6 553.3L333.58 574.23H333.79L341.14 553.44C341.233 552.973 341.28 552.67 341.28 552.53C341.28 551.783 340.813 551.41 339.88 551.41H337.15V549.1H349.89V551.41C348.443 551.41 347.417 551.62 346.81 552.04C346.203 552.46 345.69 553.207 345.27 554.28L333.86 582H328.68L317.69 554ZM379.23 565.97H358.23C358.37 569.983 359.14 573.04 360.54 575.14C361.94 577.24 364.296 578.29 367.61 578.29C369.896 578.29 371.786 577.777 373.28 576.75C374.773 575.677 375.963 574.09 376.85 571.99L379.02 573.25C377.853 576.097 376.22 578.383 374.12 580.11C372.02 581.837 368.87 582.7 364.67 582.7C354.636 582.7 349.62 577.03 349.62 565.69C349.62 559.95 350.88 555.633 353.4 552.74C355.966 549.847 359.7 548.4 364.6 548.4C369.733 548.4 373.443 549.893 375.73 552.88C378.063 555.867 379.23 559.927 379.23 565.06V565.97ZM370.69 563.17C370.69 559.017 370.316 555.983 369.57 554.07C368.823 552.157 367.26 551.2 364.88 551.2C362.593 551.2 360.913 552.157 359.84 554.07C358.813 555.983 358.253 559.017 358.16 563.17H370.69ZM404.682 548.33C406.688 548.33 408.158 548.913 409.092 550.08C410.072 551.2 410.562 552.577 410.562 554.21C410.562 555.75 410.165 556.963 409.372 557.85C408.578 558.69 407.458 559.11 406.012 559.11C404.752 559.11 403.748 558.783 403.002 558.13C402.302 557.477 401.952 556.567 401.952 555.4C401.952 554.7 402.045 554.14 402.232 553.72C402.465 553.3 402.745 552.903 403.072 552.53C403.445 552.157 403.632 551.9 403.632 551.76C403.632 551.573 403.562 551.41 403.422 551.27C403.282 551.13 403.048 551.06 402.722 551.06C401.882 551.06 400.948 551.597 399.922 552.67C398.895 553.743 398.008 555.19 397.262 557.01C396.515 558.783 396.142 560.697 396.142 562.75V576.19C396.142 577.217 396.258 577.963 396.492 578.43C396.772 578.897 397.308 579.223 398.102 579.41C398.895 579.597 400.178 579.69 401.952 579.69V582H383.472V579.69C384.872 579.69 385.875 579.597 386.482 579.41C387.088 579.177 387.485 578.827 387.672 578.36C387.858 577.893 387.952 577.17 387.952 576.19V555.96C387.952 554.7 387.812 553.86 387.532 553.44C387.252 552.973 386.738 552.74 385.992 552.74H383.892V550.36L393.972 548.75H395.932V554.84H396.072C398.125 550.5 400.995 548.33 404.682 548.33ZM426.007 582.77C424.747 582.77 423.697 582.653 422.857 582.42C422.063 582.233 421.107 581.953 419.987 581.58C418.913 581.113 418.027 580.88 417.327 580.88C416.767 580.88 416.323 580.997 415.997 581.23C415.717 581.417 415.437 581.743 415.157 582.21H413.827L413.197 570.66H414.947C415.833 573.46 417.233 575.723 419.147 577.45C421.107 579.177 423.253 580.04 425.587 580.04C427.267 580.04 428.573 579.597 429.507 578.71C430.44 577.777 430.907 576.54 430.907 575C430.907 574.02 430.697 573.227 430.277 572.62C429.857 571.967 429.227 571.383 428.387 570.87C427.547 570.357 426.17 569.633 424.257 568.7L422.857 568C419.637 566.413 417.397 564.943 416.137 563.59C414.923 562.19 414.317 560.393 414.317 558.2C414.317 555.073 415.343 552.67 417.397 550.99C419.45 549.263 422.25 548.4 425.797 548.4C427.71 548.4 429.53 548.703 431.257 549.31C432.283 549.59 432.983 549.73 433.357 549.73C433.87 549.73 434.22 549.637 434.407 549.45C434.593 549.263 434.71 549.077 434.757 548.89C434.85 548.657 434.897 548.517 434.897 548.47H436.367L436.927 558.76H435.177C434.617 556.52 433.52 554.7 431.887 553.3C430.3 551.9 428.48 551.2 426.427 551.2C424.98 551.2 423.767 551.55 422.787 552.25C421.853 552.95 421.387 553.883 421.387 555.05C421.387 557.15 422.973 558.923 426.147 560.37L428.317 561.35C430.557 562.377 432.353 563.333 433.707 564.22C435.06 565.107 436.133 566.203 436.927 567.51C437.72 568.77 438.117 570.333 438.117 572.2C438.117 575.373 436.997 577.94 434.757 579.9C432.563 581.813 429.647 582.77 426.007 582.77ZM449.902 544.06C448.548 544.06 447.452 543.64 446.612 542.8C445.772 541.913 445.352 540.817 445.352 539.51C445.352 538.203 445.772 537.107 446.612 536.22C447.452 535.333 448.548 534.89 449.902 534.89C451.302 534.89 452.422 535.333 453.262 536.22C454.102 537.107 454.522 538.203 454.522 539.51C454.522 540.817 454.078 541.913 453.192 542.8C452.305 543.64 451.208 544.06 449.902 544.06ZM441.572 579.69C442.972 579.69 443.975 579.597 444.582 579.41C445.188 579.177 445.585 578.827 445.772 578.36C445.958 577.893 446.052 577.17 446.052 576.19V555.96C446.052 554.653 445.912 553.79 445.632 553.37C445.398 552.95 444.885 552.74 444.092 552.74H441.992V550.36L452.282 548.75H454.242V576.19C454.242 577.217 454.335 577.963 454.522 578.43C454.708 578.897 455.105 579.223 455.712 579.41C456.318 579.597 457.322 579.69 458.722 579.69V582H441.572V579.69ZM472.42 582.77C469.853 582.77 467.847 582.07 466.4 580.67C464.953 579.223 464.23 577.193 464.23 574.58V551.9H460.1V549.59C462.527 548.843 464.463 547.56 465.91 545.74C467.357 543.873 468.5 541.33 469.34 538.11H472.28V549.1H479.77V551.9H472.28V572.13C472.28 574.23 472.677 575.793 473.47 576.82C474.263 577.847 475.5 578.36 477.18 578.36C478.44 578.36 479.607 578.127 480.68 577.66L481.45 579.41C479.723 580.53 478.23 581.37 476.97 581.93C475.757 582.49 474.24 582.77 472.42 582.77ZM515.708 549.1V551.41C514.588 551.41 513.748 551.503 513.188 551.69C512.628 551.83 512.162 552.157 511.788 552.67C511.415 553.183 510.995 554.047 510.528 555.26L500.308 581.16L499.188 584.03C498.068 587.017 497.088 589.327 496.248 590.96C495.408 592.64 494.312 594.017 492.958 595.09C491.652 596.163 490.018 596.7 488.058 596.7C486.098 596.7 484.488 596.187 483.228 595.16C481.968 594.133 481.338 592.85 481.338 591.31C481.338 590.05 481.758 588.953 482.598 588.02C483.438 587.087 484.465 586.62 485.678 586.62C486.705 586.62 487.545 586.97 488.198 587.67C488.898 588.37 489.248 589.257 489.248 590.33C489.248 591.123 489.062 591.777 488.688 592.29C488.315 592.85 488.128 593.223 488.128 593.41C488.128 593.783 488.548 593.97 489.388 593.97C490.695 593.97 491.768 593.48 492.608 592.5C493.448 591.52 494.288 589.817 495.128 587.39L496.668 583.12L484.768 554.28C484.395 553.347 484.045 552.693 483.718 552.32C483.438 551.947 483.018 551.713 482.458 551.62C481.945 551.48 481.105 551.41 479.938 551.41V549.1H496.668V551.41H494.358C493.472 551.41 493.028 551.783 493.028 552.53C493.028 552.81 493.098 553.16 493.238 553.58L500.168 572.76H500.308L507.098 553.51L507.238 552.67C507.238 551.83 506.772 551.41 505.838 551.41H503.108V549.1H515.708Z" fill="#701111"/>
<path d="M271.503 326.34C271.457 326.444 271.432 326.5 271.432 326.5V206.6H294.839V155H173V206.6H196.408V336.5H173V388V368C173 368 176.5 354 187.5 344.5C187.5 344.5 184 354.151 190.514 371.014C190.597 371.438 190.689 372.1 190.786 372.797C190.984 374.214 191.201 375.776 191.406 375.776C191.406 375.776 191.635 373.425 191.816 371.014C192.925 356.552 211.361 302.136 220.5 291C219 299.774 197.824 352.247 207.861 371.014C210.788 376.741 209.721 371.014 209.721 371.014C209.938 356.054 217 300.5 236.5 276.743C235 287 217.405 335.77 231.116 371.015C231.352 371.522 231.564 372.113 231.789 372.739C232.143 373.728 233.163 375.039 233.093 375.777C233.093 375.777 233.298 373.451 233.638 371.015C235.451 358.065 241.189 314 241.189 293.875C243.5 298 251.831 343.471 249.678 371.015H249.912C251.894 358.687 254.464 318.16 256.592 284.587C257.589 268.86 259.187 254.5 259.187 245.6C261.5 249 266.896 272.336 265.898 354.151C266.5 346.212 268.63 335.746 271.503 326.34ZM271.503 326.34C274.409 316.831 278.073 308.407 281.686 304.774C281.686 304.774 278.173 320.973 276.5 336.5M524.5 388V344.5M524.5 344.5V286.4H518.417M524.5 344.5C523.344 312.536 520.896 295.511 518.417 286.4M518.417 286.4C516.285 278.565 514.5 276.743 514.5 276.743C514.775 279.947 514.969 283.172 515.093 286.4M515.093 286.4C516.769 330.172 505.405 374.546 504.116 375.172C504.157 374.908 504.52 371.02 504.52 371.02C509.296 337.628 498.5 318.5 498.5 318.5C499.5 349.5 491.016 364.156 482.515 371.02C479.329 373.588 476.959 375.781 476.959 375.781C476.793 375.781 476.64 374.201 476.502 372.775C476.435 372.09 476.372 371.44 476.313 371.02C476.8 340.484 484.042 311.947 488.009 296.314C489.13 291.897 491.5 286.4 491.5 286.4M515.093 286.4H491.5M491.5 286.4C491.5 285.5 492.967 281.268 493 281C492.732 281.223 489.301 286.025 489 286.4M489 286.4H483.887L469 335.535L467.062 335.6M489 286.4C482.566 294.426 473 339 467.062 362C467.062 350.5 467.036 341.799 467.062 335.6M467.062 335.6C467.149 315.158 462 310.221 462 310.221C463.042 319.971 462.993 328.362 462.306 335.6M462.306 335.6H447.115M462.306 335.6C460.883 350.599 456.719 360.646 453.847 367.574C453.331 368.82 452.856 369.965 452.447 371.02C451.497 373.476 450.863 375.781 450.863 375.781C450.574 375.781 450.304 374.323 450.047 372.928C449.913 372.203 449.783 371.497 449.654 371.02C446.547 359.413 446.411 346.216 447.115 335.6M447.115 335.6C447.883 324.008 449.654 315.495 449.654 315.495C447.827 317.407 444.374 325.99 441.112 335.6M441.112 335.6H422.967L521.999 203V155H317.633V252.2H359.947L371.65 206.6H417.865L333.87 315.495M441.112 335.6C438.742 342.58 436.473 350.101 435 356C429 342.5 421.5 340.521 421.5 340.521C424.5 361.292 416.667 368.618 416.667 368.618C420.262 328.135 412.5 321 407.667 318.013C416 334.5 395.969 367.847 395.969 367.847C394.033 338.934 398.886 316.757 403.467 295.815C405.913 284.637 408.282 273.811 409.5 262.5C399.915 272.552 390.596 315.14 386.697 332.96C385.837 336.889 385.241 339.614 384.963 340.521C384.691 339.588 384.349 337.842 383.896 335.535C381.914 325.433 377.818 304.56 368.267 293.875C375.5 329.5 370 364 368.078 370.177C366 361.5 359.5 314 358.176 310.221C355 328 342.998 360.06 336.944 371.015C335.612 373.416 334.779 375.777 334.779 375.777C334.548 375.777 334.341 374.257 334.148 372.846C334.052 372.141 333.96 371.463 333.87 371.015C330.562 354.568 331.2 336.273 333.87 315.495M333.87 315.495C336.081 298.282 340.176 276.743 340.176 276.743C336.593 279.155 331.359 292.395 328.5 300.5C320.059 324.428 316.861 358.363 315.401 371.02C315.12 373.462 314.979 375.782 314.979 375.782C314.929 375.782 314.874 374.487 314.82 373.185C314.785 372.355 314.749 371.522 314.715 371.02C313.871 359.113 313.451 346.616 313.244 336.5C312.993 324.254 313.055 315.495 313.055 315.495C310.909 317.534 308.659 326.588 307 336.5C304.372 352.2 302.822 371.038 302.448 375.039C302.404 375.519 302.38 375.777 302.378 375.777L302.536 371.015C303.285 357.857 303.368 346.409 303.014 336.5M303.014 336.5C301.541 295.185 292.481 280.642 292.481 280.642C293.243 295.48 291.082 319.193 289 336.5M303.014 336.5H303M289 336.5H276.5M289 336.5C286.932 353.692 284.953 364.506 282.929 371.015C282.167 373.477 281.686 375.777 281.686 375.777C281.069 375.777 280.514 374.177 280.009 372.721C279.784 372.072 279.569 371.452 279.363 371.015C275.009 361.779 275.072 349.758 276.5 336.5" stroke="#701111" stroke-width="8"/>
<path d="M172.5 388V336.422H195.908V206.578H172.5V155H294.339V206.578H270.932V336.422L318.033 336.722V388H172.5Z" fill="#701111"/>
<path d="M318.033 388V336.722L417.365 206.578H371.15L359.447 252.158H317.133V155H521.499V202.979L422.467 335.523H467.482L483.387 286.344H524.5V388H318.033Z" fill="#701111"/>
<path d="M318.033 336.722L270.932 336.422V206.578H294.339V155H172.5V206.578H195.908V336.422H172.5V388H318.033M318.033 336.722V388M318.033 336.722L417.365 206.578H371.15L359.447 252.158H317.133V155H521.499V202.979L422.467 335.523H467.482L483.387 286.344H524.5V388H318.033" stroke="#701111" stroke-width="8"/>
<path d="M514.5 276.743C518.5 323.389 505.5 374.5 504.116 375.172C504.157 374.908 504.52 371.02 504.52 371.02C509.296 337.628 498.5 318.5 498.5 318.5C499.5 349.5 491.016 364.156 482.515 371.02C479.329 373.588 476.313 375.781 476.313 375.781C476.067 375.781 476.495 372.314 476.313 371.02C476.959 330.5 489.5 293.5 490.5 285.5C484.5 290.5 474 333.5 467.5 357.5C470 322 462 310.221 462 310.221C465.59 343.811 456.231 361.268 452.447 371.02C451.497 373.476 450.863 375.781 450.863 375.781C450.423 375.781 450.031 372.416 449.654 371.02C443.154 346.74 449.654 315.495 449.654 315.495C446.5 318.795 438.5 341.98 435 356C429 342.5 421.5 340.521 421.5 340.521C424.5 361.292 416.667 368.618 416.667 368.618C420.263 328.135 411.5 321.5 407.667 318.013C416.5 334.5 395.969 367.847 395.969 367.847C393 323.5 406 295 409.5 262.5C397.802 274.768 386.5 335.5 384.963 340.521C383.5 335.5 380 307 368.267 293.875C375.5 329.5 370 364 368.078 370.177C366 361.5 358.176 310.221 358.176 310.221C355 328 342.998 360.06 336.944 371.015C335.612 373.416 334.779 375.777 334.779 375.777C334.433 375.777 334.14 372.36 333.87 371.015C327.821 340.943 340.176 276.743 340.176 276.743C326.014 286.276 317.355 354.075 315.401 371.02C315.12 373.462 314.979 375.782 314.979 375.782C314.897 375.782 314.803 372.31 314.715 371.02C312.85 344.7 313.055 315.495 313.055 315.495C307.1 321.151 302.407 375.777 302.378 375.777L302.536 371.015C306.408 302.998 292.481 280.642 292.481 280.642C294 310.221 286.989 357.954 282.929 371.015C282.167 373.477 281.686 375.777 281.686 375.777C280.794 375.777 280.031 372.431 279.363 371.015C269.911 350.964 281.686 304.774 281.686 304.774C274.5 312 267.107 338.186 265.898 354.151C266.896 272.336 259.187 245.6 259.187 245.6C257 274 252.822 352.913 249.912 371.015C249.76 371.969 249.742 372.081 249.912 371.015H249.678C251.831 343.471 241.189 293.875 241.189 293.875C241.189 315.495 235.451 358.065 233.638 371.015C233.298 373.451 233.093 375.777 233.093 375.777C232.172 374.188 231.726 372.325 231.116 371.015C217.405 335.77 236.5 276.743 236.5 276.743C215.604 300.855 209.938 356.054 209.721 371.014C209.698 372.482 209.703 372.167 209.721 371.014C209.721 371.014 210.788 376.741 207.861 371.014C197.824 352.247 218 296.5 218 296.5C208 311.5 192.925 356.552 191.816 371.014C191.635 373.425 191.406 375.776 191.406 375.776C191.1 375.776 190.767 372.299 190.514 371.014C184 354.151 188 344 188 344C177 353.5 173.5 367.847 173.5 367.847V389H525.5C525.553 301.85 514.5 276.743 514.5 276.743Z" fill="#124B43"/>
<path d="M172.5 389V336.5H195.908V206.6H172.5V155H294.339V206.6H270.932V326.5C270.932 326.5 270.957 326.444 271.003 326.34M271.003 326.34C268.13 335.746 266 346.212 265.398 354.151C266.396 272.336 261 249 258.687 245.6C258.687 254.5 257.089 268.86 256.092 284.587C253.964 318.16 251.394 358.687 249.412 371.015H249.178C251.331 343.471 243 298 240.689 293.875C240.689 314 234.951 358.065 233.138 371.015C232.798 373.451 232.593 375.777 232.593 375.777C232.029 374.803 231.643 373.728 231.289 372.739C231.064 372.113 230.852 371.522 230.616 371.015C216.905 335.77 234.5 287 236 276.743C216.5 300.5 209.438 356.054 209.221 371.014C209.221 371.014 210.288 376.741 207.361 371.014C197.324 352.247 218.5 299.774 220 291C210.861 302.136 192.425 356.552 191.316 371.014C191.135 373.425 190.906 375.776 190.906 375.776C190.701 375.776 190.484 374.214 190.286 372.797C190.189 372.1 190.097 371.438 190.014 371.014C183.5 354.151 187 344.5 187 344.5C176 354 172.5 368.5 172.5 368.5M271.003 326.34C273.909 316.831 277.573 308.407 281.186 304.774C281.186 304.774 277.673 320.973 276 336.5M524.5 389V364.358V344.717M524.5 344.717V286.4H517.917M524.5 344.717C523.344 312.753 520.396 295.511 517.917 286.4M517.917 286.4C515.785 278.565 514 276.743 514 276.743C514.275 279.947 514.469 283.172 514.593 286.4M514.593 286.4C516.269 330.172 504.905 374.546 503.616 375.172C503.657 374.908 504.02 371.02 504.02 371.02C508.796 337.628 498 318.5 498 318.5C499 349.5 490.516 364.156 482.015 371.02C478.829 373.588 476.459 375.781 476.459 375.781C476.293 375.781 476.14 374.201 476.002 372.775C475.935 372.09 475.872 371.44 475.813 371.02C476.3 340.484 483.542 311.947 487.509 296.314C488.63 291.897 491 286.4 491 286.4M514.593 286.4H491M491 286.4C491 285.5 492.467 281.268 492.5 281C492.232 281.223 488.801 286.025 488.5 286.4M488.5 286.4H483.387L468.5 335.535L466.562 335.6M488.5 286.4C482.066 294.426 472.5 339 466.562 362C466.562 350.5 466.536 341.799 466.562 335.6M466.562 335.6C466.649 315.158 461.5 310.221 461.5 310.221C462.542 319.971 462.493 328.362 461.806 335.6M461.806 335.6H446.615M461.806 335.6C460.383 350.599 456.219 360.646 453.347 367.574C452.831 368.82 452.356 369.965 451.947 371.02C450.997 373.476 450.363 375.781 450.363 375.781C450.074 375.781 449.804 374.323 449.547 372.928C449.413 372.203 449.283 371.497 449.154 371.02C446.047 359.413 445.911 346.216 446.615 335.6M446.615 335.6C447.383 324.008 449.154 315.495 449.154 315.495C447.327 317.407 443.874 325.99 440.612 335.6M440.612 335.6H422.467L521.499 203V155H317.133V252.2H359.447L371.15 206.6H417.365L333.37 315.495M440.612 335.6C438.242 342.58 435.973 350.101 434.5 356C428.5 342.5 421 340.521 421 340.521C424 361.292 416.167 368.618 416.167 368.618C419.762 328.135 412 321 407.167 318.013C415.5 334.5 395.469 367.847 395.469 367.847C393.533 338.934 398.386 316.757 402.967 295.815C405.413 284.637 407.782 273.811 409 262.5C399.415 272.552 390.096 315.14 386.197 332.96C385.337 336.889 384.741 339.614 384.463 340.521C384.191 339.588 383.849 337.842 383.396 335.535C381.414 325.433 377.318 304.56 367.767 293.875C375 329.5 369.5 364 367.578 370.177C365.5 361.5 359 314 357.676 310.221C354.5 328 342.498 360.06 336.444 371.015C335.112 373.416 334.279 375.777 334.279 375.777C334.048 375.777 333.841 374.257 333.648 372.846C333.552 372.141 333.46 371.463 333.37 371.015C330.062 354.568 330.7 336.273 333.37 315.495M333.37 315.495C335.581 298.282 339.676 276.743 339.676 276.743C336.093 279.155 330.859 292.395 328 300.5C319.559 324.428 316.361 358.363 314.901 371.02C314.62 373.462 314.479 375.782 314.479 375.782C314.429 375.782 314.374 374.487 314.32 373.185C314.285 372.355 314.249 371.522 314.215 371.02C313.371 359.113 312.951 346.616 312.744 336.5C312.493 324.254 312.555 315.495 312.555 315.495C310.409 317.534 308.159 326.588 306.5 336.5C303.872 352.2 302.322 371.038 301.948 375.039C301.904 375.519 301.88 375.777 301.878 375.777L302.036 371.015C302.785 357.857 302.868 346.409 302.514 336.5M302.514 336.5C301.041 295.185 291.981 280.642 291.981 280.642C292.743 295.48 290.582 319.193 288.5 336.5M302.514 336.5H302.5M288.5 336.5H276M288.5 336.5C286.432 353.692 284.453 364.506 282.429 371.015C281.667 373.477 281.186 375.777 281.186 375.777C280.569 375.777 280.014 374.177 279.509 372.721C279.284 372.072 279.069 371.452 278.863 371.015C274.509 361.779 274.572 349.758 276 336.5" stroke="white" stroke-width="2"/>
<rect x="172.5" y="387" width="351" height="2" fill="white"/>
</svg>
