<svg fill="none" height="231" viewBox="0 0 354 231" width="354" xmlns="http://www.w3.org/2000/svg"><path clip-rule="evenodd" d="m.5 228v-45.5h23.4076v-129.9h-23.4076v-51.6h121.839v51.6h-23.4071v119.9s.0248-.056.0715-.16c-2.8736 9.406-5.0039 19.872-5.6049 27.811.9976-81.815-4.3985-105.151-6.7112-108.551 0 8.9-1.5981 23.26-2.5952 38.987-2.1286 33.573-4.6982 74.1-6.6798 86.428h-.2343c2.1528-27.544-6.178-73.015-8.4891-77.14 0 20.125-5.7375 64.19-7.5504 77.14-.3405 2.436-.5454 4.762-.5454 4.762-.5641-.974-.9499-2.049-1.3046-3.038-.2243-.626-.4362-1.217-.6728-1.724-13.7106-35.245 3.8843-84.015 5.3843-94.272-19.5 23.757-26.5619 79.311-26.7791 94.271 0 0 1.0675 5.727-1.8596 0-10.0376-18.767 11.1387-71.24 12.6387-80.014-9.1387 11.136-27.5751 65.552-28.6837 80.014-.1816 2.411-.4105 4.762-.4105 4.762-.2048 0-.4222-1.562-.6195-2.979-.097-.697-.1892-1.359-.2725-1.783-6.5138-16.863-3.0138-26.514-3.0138-26.514-10.99999 9.5-14 23.347-14 23.347v14.153z" fill="#c4c4c4" fill-rule="evenodd"/><path d="m352.5 190.717c.324 8.949.507 19.053.5 30.455v8.828h-.5zm0 0v-58.317h-6.583c2.479 9.111 5.427 26.353 6.583 58.317zm-352-8.217v45.5h.5v-14.153s3.00001-13.847 14-23.347c0 0-3.5 9.651 3.0138 26.514.0833.424.1755 1.086.2725 1.783.1973 1.417.4147 2.979.6195 2.979 0 0 .2289-2.351.4105-4.762 1.1086-14.462 19.545-68.878 28.6837-80.014-1.5 8.774-22.6763 61.247-12.6387 80.014 2.9271 5.727 1.8596 0 1.8596 0 .2172-14.96 7.2791-70.514 26.7791-94.271-1.5 10.257-19.0949 59.027-5.3843 94.272.2366.507.4485 1.098.6728 1.724.3547.989.7405 2.064 1.3046 3.038 0 0 .2049-2.326.5454-4.762 1.8129-12.95 7.5504-57.015 7.5504-77.14 2.3111 4.125 10.6419 49.596 8.4891 77.14h.2343c1.9816-12.328 4.5512-52.855 6.6798-86.428.9971-15.727 2.5952-30.087 2.5952-38.987 2.3127 3.4 7.7088 26.736 6.7112 108.551.601-7.939 2.7313-18.405 5.6049-27.811-.0467.104-.0715.16-.0715.16v-119.9h23.4071v-51.6h-121.839v51.6h23.4076v129.9zm342.093-50.1c1.676 43.772-9.688 88.146-10.977 88.772.041-.264.404-4.152.404-4.152 4.776-33.392-6.02-52.52-6.02-52.52 1 31-7.484 45.656-15.985 52.52-3.186 2.568-5.556 4.761-5.556 4.761-.166 0-.319-1.58-.457-3.006-.067-.685-.13-1.335-.189-1.755.487-30.536 7.729-59.073 11.696-74.706 1.121-4.417 3.491-9.914 3.491-9.914zm-26.093 0h-5.113l-14.887 49.135-1.938.065c-.026 6.199 0 14.9 0 26.4 5.938-23 15.504-67.574 21.938-75.6zm-26.694 49.2h-15.191c-.704 10.616-.568 23.813 2.539 35.42.129.477.259 1.183.393 1.908.257 1.395.527 2.853.816 2.853 0 0 .634-2.305 1.584-4.761.409-1.055.884-2.2 1.4-3.446 2.872-6.928 7.036-16.975 8.459-31.974zm-21.194 0h-18.145l99.032-132.6v-48h-204.366v97.2h42.314l11.703-45.6h46.215l-83.865 106.9c-2.67 20.778-3.438 41.068-.13 57.515.09.448.182 1.126.278 1.831.193 1.411.4 2.931.631 2.931 0 0 .833-2.361 2.165-4.762 6.054-10.955 18.056-43.015 21.232-60.794 1.324 3.779 7.824 51.279 9.902 59.956 1.922-6.177 7.422-40.677.189-76.302 9.551 10.685 13.647 31.558 15.629 41.66.453 2.307.795 4.053 1.067 4.986.278-.907.874-3.632 1.734-7.561 3.899-17.82 13.218-60.408 22.803-70.46-1.218 11.311-3.587 22.137-6.033 33.315-4.581 20.942-9.434 43.119-7.498 72.032 0 0 20.031-33.347 11.698-49.834 4.833 2.987 12.595 10.122 9 50.605 0 0 7.833-7.326 4.833-28.097 0 0 7.5 1.979 13.5 15.479 1.473-5.899 3.742-13.42 6.112-20.4zm-152.112.9h-12.5c-1.428 13.258-1.491 25.279 2.863 34.515.206.437.421 1.057.646 1.706.505 1.456 1.06 3.056 1.677 3.056 0 0 .481-2.3 1.243-4.762 2.024-6.509 4.003-17.323 6.071-34.515z" stroke="#000"/></svg>